<svg width="82" height="45" viewBox="0 0 82 45" fill="none" xmlns="http://www.w3.org/2000/svg">
<g id="logo 6" clip-path="url(#clip0_158_87)">
<g id="Layer_x0020_1">
<path id="Vector" d="M0 0.335563H15.6445C19.4225 0.367526 22.272 1.19807 24.1932 2.82765C26.1145 4.45723 27.2203 6.23049 27.5111 8.14757C27.5432 8.33944 27.5674 8.52306 27.5835 8.69887C27.5999 8.87453 27.6079 9.05828 27.6079 9.24985C27.6079 9.28184 27.6079 9.32179 27.6079 9.36966C27.6079 9.41772 27.6079 9.4575 27.6079 9.48963C27.5755 10.6398 27.2284 11.7421 26.5665 12.7965C25.9045 13.8509 24.9924 14.6337 23.8299 15.1449C24.96 15.4845 25.923 15.9955 26.7189 16.6783C23.5709 20.2529 23.3855 25.2156 26.27 28.8675C24.4274 30.4867 21.6604 31.2962 17.9693 31.2962L6.41256e-05 31.2485V0.335541L0 0.335563ZM10.5588 18.7874V23.8677H16.3225C17.3236 23.8995 18.0662 23.6839 18.5506 23.2208C19.0349 22.7573 19.2932 22.254 19.3255 21.711C19.3255 21.679 19.3255 21.6552 19.3255 21.6391C19.3255 21.623 19.3255 21.5992 19.3255 21.5672C19.3255 21.4712 19.3173 21.3754 19.3013 21.2797C19.285 21.1837 19.261 21.072 19.2285 20.9441C19.0994 20.4009 18.7846 19.9056 18.2841 19.4584C17.7836 19.0111 17.1298 18.7874 16.3225 18.7874H10.5588ZM10.5588 8.0039V12.7965H14.6273C15.6606 12.8285 16.4758 12.6288 17.0733 12.1975C17.6706 11.7661 18.0177 11.2788 18.1147 10.7356C18.1468 10.6718 18.163 10.616 18.163 10.5679C18.163 10.52 18.163 10.4642 18.163 10.4002C18.163 10.3362 18.163 10.2804 18.163 10.2324C18.163 10.1846 18.1468 10.1286 18.1147 10.0647C18.0177 9.55343 17.7028 9.09012 17.1701 8.67468C16.6373 8.25941 15.9028 8.05177 14.9664 8.05177L10.5588 8.00387L10.5588 8.0039ZM52.6001 0.335563H68.2445C72.0226 0.367526 74.8721 1.19807 76.7933 2.82765C78.7146 4.45723 79.8204 6.23049 80.1112 8.14757C80.1433 8.33944 80.1675 8.52306 80.1837 8.69887C80.1999 8.87453 80.208 9.05828 80.208 9.24985C80.208 9.28184 80.208 9.32179 80.208 9.36966C80.208 9.41772 80.208 9.4575 80.208 9.48963C80.1755 10.6398 79.8284 11.7421 79.1666 12.7965C78.5046 13.8509 77.5924 14.6337 76.43 15.1449C78.2382 15.6881 79.6186 16.6706 80.5712 18.0926C81.5238 19.5144 82 21.024 82 22.6216C82 22.6854 82 22.7493 82 22.8133C82 22.8773 82 22.941 82 23.005C81.8709 25.0818 80.886 26.983 79.0455 28.7084C77.205 30.4337 74.3796 31.2962 70.5695 31.2962L61.2573 31.2485L54.2723 24.146L60.1963 15.2934L52.6001 15.3222V0.33552L52.6001 0.335563ZM63.1589 18.7874V23.8677H68.9226C69.9237 23.8995 70.6663 23.6839 71.1507 23.2208C71.6349 22.7573 71.8933 22.254 71.9256 21.711C71.9256 21.679 71.9256 21.6552 71.9256 21.6391C71.9256 21.623 71.9256 21.5992 71.9256 21.5672C71.9256 21.4712 71.9174 21.3754 71.9013 21.2797C71.8853 21.1837 71.8611 21.072 71.8286 20.9441C71.6995 20.4009 71.3846 19.9056 70.8844 19.4584C70.3837 19.0111 69.7299 18.7874 68.9226 18.7874H63.1589ZM63.1589 8.0039V12.7965H67.2274C68.2607 12.8285 69.0759 12.6288 69.6733 12.1975C70.2708 11.7661 70.6178 11.2788 70.7147 10.7356C70.747 10.6718 70.7631 10.616 70.7631 10.5679C70.7631 10.52 70.7631 10.4642 70.7631 10.4002C70.7631 10.3362 70.7631 10.2804 70.7631 10.2324C70.7631 10.1846 70.747 10.1286 70.7147 10.0647C70.6178 9.55343 70.3029 9.09012 69.7702 8.67468C69.2374 8.25941 68.5029 8.05177 67.5665 8.05177L63.1589 8.00387L63.1589 8.0039ZM32.1123 13.8031C31.3695 13.1639 30.748 12.4451 30.2473 11.6463C29.7471 10.8475 29.3837 10.0327 29.1576 9.20198C29.0931 8.94644 29.0448 8.6747 29.0123 8.3872C28.98 8.09968 28.964 7.82809 28.964 7.57255C28.964 5.62348 29.8439 3.88206 31.6036 2.34843C33.3635 0.814781 36.0354 0.0478709 39.6196 0.0478709L40.2977 0C43.5913 0.0959325 46.0694 0.982477 47.7323 2.65995C49.3953 4.33743 50.2914 6.16667 50.4206 8.14757C50.4206 8.21154 50.4206 8.28345 50.4206 8.36333C50.4206 8.44321 50.4206 8.51512 50.4206 8.57892C50.4206 8.70684 50.4206 8.82664 50.4206 8.93833C50.4206 9.05036 50.4044 9.17 50.3721 9.29791C50.243 10.6718 49.7586 11.9897 48.919 13.2519C48.0795 14.5139 46.9172 15.4805 45.4318 16.1515L47.805 18.7874C48.1602 18.5957 48.4428 18.3561 48.6527 18.0685C48.8625 17.7809 49.0643 17.4775 49.2581 17.158C49.3227 16.9981 49.4115 16.8304 49.5245 16.6547C49.6375 16.4789 49.7424 16.3112 49.8392 16.1514L58.7028 16.1036L53.2298 24.251L60.0589 31.2485H49.1613L46.4489 28.5646C45.6093 29.587 44.2451 30.4256 42.3561 31.0807C40.4672 31.7357 38.4732 32.0791 36.3743 32.1112C36.3422 32.1112 36.3018 32.1112 36.2534 32.1112C36.2049 32.1112 36.1647 32.1112 36.1322 32.1112C34.55 32.1112 33.0082 31.8875 31.5067 31.4401C30.0054 30.9929 28.7379 30.274 27.7045 29.2834C26.8651 28.4527 26.2193 27.5181 25.7672 26.4798C25.3152 25.4413 25.0891 24.3789 25.0891 23.2925C25.0891 23.1328 25.0972 22.9651 25.1134 22.7895C25.1294 22.6136 25.1376 22.43 25.1376 22.2382C25.3637 20.5128 26.074 18.8673 27.2686 17.3017C28.4635 15.7361 30.0779 14.5859 32.1122 13.8509V13.8031L32.1123 13.8031ZM37.2462 19.1228C36.5359 19.4744 35.9304 19.8498 35.43 20.2492C34.9295 20.6487 34.5823 21.072 34.3886 21.5193C34.2917 21.6791 34.2192 21.8468 34.1707 22.0226C34.1222 22.1982 34.0979 22.3661 34.0979 22.5258C34.0979 22.6536 34.1141 22.7734 34.1464 22.8853C34.1787 22.9971 34.211 23.1168 34.2434 23.2447C34.308 23.4364 34.3968 23.62 34.5098 23.7958C34.6227 23.9715 34.7439 24.1393 34.873 24.2991C35.0991 24.5866 35.4057 24.8103 35.7932 24.97C36.1808 25.1298 36.5843 25.2097 37.0041 25.2097C37.327 25.2097 37.6661 25.1777 38.0213 25.1139C38.3764 25.0499 38.7316 24.9541 39.0868 24.8262C39.5712 24.6665 40.0313 24.4829 40.4673 24.2752C40.9032 24.0674 41.2986 23.8518 41.6538 23.6281L37.2462 19.1229L37.2462 19.1228ZM39.6196 11.1191C40.3945 10.9913 41.0162 10.6558 41.4842 10.1127C41.9526 9.56953 42.235 8.99438 42.332 8.38722C42.332 8.3234 42.332 8.26757 42.332 8.21951C42.332 8.17163 42.332 8.11578 42.332 8.05181V7.52453C42.332 7.49269 42.332 7.4526 42.332 7.40472C42.332 7.35683 42.3158 7.30098 42.2835 7.23701C42.219 6.85357 42.0009 6.5021 41.6297 6.1826C41.2583 5.86313 40.7012 5.70338 39.9586 5.70338C39.119 5.70338 38.4814 5.90306 38.0455 6.30242C37.6096 6.70195 37.3917 7.17308 37.3917 7.71627C37.3917 7.90798 37.4158 8.0997 37.4641 8.29144C37.5126 8.48316 37.5693 8.67472 37.6336 8.86659C37.8276 9.31384 38.102 9.75315 38.4572 10.1846C38.8123 10.616 39.1998 10.9433 39.6196 11.167V11.1191Z" fill="#E22F29"/>
<path id="Vector_2" d="M0.134766 44.8461V35.6396H3.6425C4.25883 35.6396 4.73028 35.6697 5.05681 35.7275C5.51313 35.8025 5.89592 35.9461 6.20517 36.1561C6.51441 36.3683 6.76311 36.664 6.95127 37.0433C7.1394 37.4226 7.2324 37.8405 7.2324 38.297C7.2324 39.0771 6.98152 39.7393 6.47764 40.2793C5.97592 40.8215 5.06549 41.0915 3.75062 41.0915H1.36743V44.8461H0.134766ZM1.36743 40.0114H3.76791C4.56375 40.0114 5.126 39.8657 5.46123 39.5721C5.79426 39.2785 5.96077 38.867 5.96077 38.3334C5.96077 37.9498 5.86347 37.6198 5.66669 37.3455C5.46989 37.0712 5.21037 36.889 4.89032 36.8012C4.6827 36.7476 4.29994 36.7197 3.74416 36.7197H1.36745L1.36743 40.0114Z" fill="#E22F29"/>
<path id="1" d="M8.81531 44.8461V35.6396H12.9329C13.7611 35.6396 14.3905 35.7232 14.8208 35.8883C15.2512 36.0533 15.595 36.3447 15.8524 36.7626C16.1097 37.1805 16.2373 37.6434 16.2373 38.1491C16.2373 38.8028 16.0232 39.3535 15.5972 39.8014C15.1712 40.2493 14.5137 40.5322 13.6227 40.6543C13.9493 40.8086 14.1958 40.9629 14.3645 41.1129C14.7235 41.4387 15.063 41.848 15.3809 42.3387L16.9877 44.8461H15.4523L14.224 42.9302C13.8671 42.3752 13.5708 41.953 13.3395 41.6594C13.1059 41.3658 12.8983 41.1622 12.7145 41.0444C12.5328 40.9286 12.3447 40.8472 12.1544 40.8001C12.016 40.7722 11.7889 40.7572 11.471 40.7572H10.048V44.8461H8.81533L8.81531 44.8461ZM10.048 39.7028H12.6863C13.2486 39.7028 13.6855 39.645 14.0012 39.5292C14.3169 39.4156 14.557 39.2313 14.7192 38.9764C14.8835 38.7235 14.9657 38.4492 14.9657 38.1513C14.9657 37.7163 14.8079 37.3562 14.4899 37.0755C14.172 36.7948 13.6703 36.6555 12.9848 36.6555H10.048V39.7029L10.048 39.7028Z" fill="#E22F29"/>
<path id="2" d="M17.7836 40.365C17.7836 38.8392 18.1988 37.6434 19.0271 36.7798C19.8553 35.9161 20.9237 35.4854 22.2342 35.4854C23.0927 35.4854 23.8648 35.689 24.5547 36.094C25.2424 36.499 25.7679 37.0648 26.129 37.7913C26.4902 38.5156 26.6718 39.3385 26.6718 40.2579C26.6718 41.1901 26.4815 42.0259 26.1009 42.7609C25.7203 43.4981 25.1818 44.0553 24.4854 44.4325C23.7869 44.8118 23.0344 45.0004 22.2277 45.0004C21.3519 45.0004 20.5712 44.7904 19.8813 44.3725C19.1936 43.9546 18.6702 43.3845 18.3156 42.6602C17.9609 41.938 17.7836 41.1729 17.7836 40.365ZM19.0552 40.3865C19.0552 41.4944 19.3558 42.3666 19.957 43.0031C20.5582 43.6396 21.3129 43.9589 22.2212 43.9589C23.1468 43.9589 23.9059 43.6374 24.5049 42.9945C25.1018 42.3516 25.4002 41.4387 25.4002 40.2557C25.4002 39.5078 25.2726 38.8542 25.0174 38.297C24.7623 37.7398 24.3881 37.3069 23.8972 37.0005C23.4042 36.694 22.8527 36.5397 22.2407 36.5397C21.3713 36.5397 20.6231 36.8355 19.9959 37.4269C19.3687 38.0184 19.0552 39.0042 19.0552 40.3865Z" fill="#E22F29"/>
<path id="3" d="M28.2527 44.8461V35.6396H31.7604C32.3767 35.6396 32.8482 35.6697 33.1747 35.7275C33.631 35.8025 34.0138 35.9461 34.3231 36.1561C34.6323 36.3683 34.881 36.664 35.0692 37.0433C35.2573 37.4226 35.3503 37.8405 35.3503 38.297C35.3503 39.0771 35.0994 39.7393 34.5955 40.2793C34.0938 40.8215 33.1834 41.0915 31.8685 41.0915H29.4853V44.8461H28.2527ZM29.4853 40.0114H31.8858C32.6816 40.0114 33.2439 39.8657 33.5791 39.5721C33.9122 39.2785 34.0787 38.867 34.0787 38.3334C34.0787 37.9498 33.9814 37.6198 33.7846 37.3455C33.5878 37.0712 33.3283 36.889 33.0082 36.8012C32.8006 36.7476 32.4178 36.7197 31.8621 36.7197H29.4854V40.0114H29.4853Z" fill="#E22F29"/>
<path id="4" d="M36.9333 44.8461V35.6396H43.6417V36.7197H38.166V39.5485H43.2914V40.6286H38.166V43.766H43.8623V44.8461H36.9333Z" fill="#E22F29"/>
<path id="5" d="M45.588 44.8461V35.6396H49.7056C50.5338 35.6396 51.1632 35.7232 51.5935 35.8883C52.0239 36.0533 52.3677 36.3447 52.6251 36.7626C52.8824 37.1805 53.01 37.6434 53.01 38.1491C53.01 38.8028 52.7959 39.3535 52.3699 39.8014C51.9439 40.2493 51.2864 40.5322 50.3954 40.6543C50.722 40.8086 50.9685 40.9629 51.1372 41.1129C51.4962 41.4387 51.8357 41.848 52.1536 42.3387L53.7604 44.8461H52.225L50.9967 42.9302C50.6398 42.3752 50.3435 41.953 50.1122 41.6594C49.8786 41.3658 49.671 41.1622 49.4872 41.0444C49.3055 40.9286 49.1174 40.8472 48.9271 40.8001C48.7887 40.7722 48.5616 40.7572 48.2437 40.7572H46.8207V44.8461H45.588L45.588 44.8461ZM46.8207 39.7028H49.459C50.0213 39.7028 50.4582 39.645 50.7739 39.5292C51.0896 39.4156 51.3297 39.2313 51.4919 38.9764C51.6562 38.7235 51.7384 38.4492 51.7384 38.1513C51.7384 37.7163 51.5806 37.3562 51.2626 37.0755C50.9447 36.7948 50.443 36.6555 49.7575 36.6555H46.8207V39.7029L46.8207 39.7028Z" fill="#E22F29"/>
<path id="6" d="M57.0605 44.8461V36.7197H53.9983V35.6396H61.3554V36.7197H58.2932V44.8461H57.0605Z" fill="#E22F29"/>
<path id="7" d="M62.8325 44.8461V35.6396H64.0652V44.8461H62.8325Z" fill="#E22F29"/>
<path id="8" d="M66.2559 44.8461V35.6396H72.9642V36.7197H67.4885V39.5485H72.6139V40.6286H67.4885V43.766H73.1848V44.8461H66.2559Z" fill="#E22F29"/>
<path id="9" d="M74.4823 41.8887L75.6371 41.7859C75.6912 42.2488 75.8188 42.6281 76.0199 42.926C76.221 43.2217 76.5324 43.4617 76.9542 43.646C77.3759 43.8282 77.8517 43.9203 78.3793 43.9203C78.8486 43.9203 79.2617 43.8517 79.6207 43.7124C79.9796 43.5731 80.2457 43.3824 80.4208 43.1403C80.596 42.8981 80.6847 42.6345 80.6847 42.3516C80.6847 42.0644 80.6003 41.8137 80.4316 41.5973C80.2629 41.383 79.984 41.2029 79.5947 41.0551C79.346 40.9608 78.7945 40.8108 77.9403 40.6072C77.0861 40.4036 76.4892 40.2129 76.1475 40.0329C75.7042 39.8014 75.3755 39.5142 75.1592 39.1735C74.9408 38.8328 74.8327 38.4492 74.8327 38.027C74.8327 37.5598 74.9667 37.1248 75.2327 36.7219C75.4987 36.3169 75.8858 36.0104 76.3984 35.8004C76.9087 35.5904 77.4775 35.4854 78.1025 35.4854C78.7902 35.4854 79.3979 35.5947 79.9234 35.8154C80.4489 36.034 80.8533 36.3576 81.1366 36.7862C81.4199 37.2126 81.5713 37.6969 81.5929 38.237L80.4121 38.327C80.3495 37.7463 80.1353 37.3069 79.7699 37.0112C79.4044 36.7133 78.8637 36.5655 78.1501 36.5655C77.4062 36.5655 76.8633 36.7005 76.5238 36.9705C76.1843 37.2405 76.0134 37.5662 76.0134 37.9477C76.0134 38.2777 76.1346 38.5499 76.3746 38.7642C76.6125 38.9764 77.2288 39.1971 78.2279 39.42C79.2271 39.645 79.9126 39.84 80.2846 40.0071C80.8231 40.2536 81.2231 40.5644 81.4805 40.9437C81.7379 41.3208 81.8654 41.7559 81.8654 42.2488C81.8654 42.7395 81.7249 43.1981 81.4416 43.631C81.1583 44.0639 80.7539 44.4003 80.224 44.6404C79.6942 44.8804 79.0995 45.0004 78.4356 45.0004C77.5965 45.0004 76.8937 44.8782 76.327 44.6361C75.7583 44.3939 75.3149 44.0296 74.9927 43.541C74.6683 43.0545 74.4996 42.5038 74.4823 41.8887H74.4823Z" fill="#E22F29"/>
</g>
</g>
<defs>
<clipPath id="clip0_158_87">
<rect width="82" height="45" fill="white"/>
</clipPath>
</defs>
</svg>
