<?xml version="1.0" encoding="utf-8"?>
<!-- Generator: Adobe Illustrator 23.0.1, SVG Export Plug-In . SVG Version: 6.00 Build 0)  -->
<svg version="1.1" id="Layer_1" xmlns="http://www.w3.org/2000/svg" xmlns:xlink="http://www.w3.org/1999/xlink" x="0px" y="0px"
	 viewBox="0 0 1588.56 527.87" style="enable-background:new 0 0 1588.56 527.87;" xml:space="preserve">
<style type="text/css">
	.st0{fill:#00A450;}
	.st1{display:none;fill:none;stroke:#FFFFFF;stroke-width:1.3675;stroke-miterlimit:10;}
	.st2{fill:#E22F29;}
	.st3{fill:#D32327;}
	.st4{fill:#D32527;}
	.st5{fill:#FFFFFF;}
	.st6{fill:#EC1C24;}
	.st7{fill:#00A551;}
	.st8{font-family:'BookmanOldStyle-Bold';}
	.st9{font-size:85.1641px;}
	.st10{fill:#2B2B2A;}
	.st11{font-family:'BookmanOldStyle';}
	.st12{font-size:51.023px;}
</style>
<g>
	<g>
		<g>
			<path class="st0" d="M464.82,150.09c-5.07,4.79-10.83,9.53-17.16,14.24c-9.93,7.38-21.28,14.66-33.72,21.81
				c-20.29-55.07-71.62-95.13-132.78-98.97c-0.93-0.07-1.87-0.12-2.8-0.16c-0.98-0.04-1.98-0.08-2.98-0.11
				c-1.3-0.04-2.6-0.05-3.91-0.05s-2.61,0.01-3.91,0.05c-1.29,0.04-2.56,0.08-3.83,0.15c-80.23,4.03-144.06,70.36-144.06,151.59
				c0,2.19,0.04,4.38,0.15,6.54c0.71,17.09,4.25,33.44,10.19,48.6c3.51,9.05,7.89,17.68,13.02,25.79c-2.97,1.27-5.89,2.48-8.77,3.64
				c-16.78,6.74-31.99,11.6-45.62,14.87C29.54,352.28,0,336.7,0,315.22c0-27,30.62-49.98,31.44-50.59
				c-0.56,1.01-32.36,58.71,17.79,49.22c6.3-1.19,16.44-3.45,29.5-6.63c-5.96-22.66-8.3-42.44-8.3-56.96
				c0-58.8,19.15-188.72,19.15-188.72L271.46,0l181.88,61.54c0,0,6.06,41.11,11.36,87.55v0.01
				C464.73,149.43,464.78,149.76,464.82,150.09z"/>
			<path class="st1" d="M423.26,252.31c0,91.39-67.97,165.47-151.8,165.47c-52.73,0-99.17-29.31-126.39-73.81l12.68-4.8
				c27.8,31.44,68.45,51.26,113.71,51.26c81.64,0,148.23-64.45,151.65-145.26C423.22,247.54,423.26,249.92,423.26,252.31z"/>
			<path class="st2" d="M472.49,250.26c0,58.8-38.29,203.76-201.03,277.61C178.79,485.82,126.47,420.71,98.6,361.58l46.47-17.6
				c27.21,44.5,73.66,73.81,126.39,73.81c83.83,0,151.8-74.08,151.8-165.47c0-2.39-0.04-4.77-0.15-7.14
				c0.11-2.16,0.15-4.35,0.15-6.54v-0.19c11.72-5.11,30.35-13.77,47.7-24.16C471.91,227.71,472.49,240.06,472.49,250.26z"/>
			<path class="st1" d="M421.12,213.2c-0.42,0.27-0.85,0.55-1.29,0.82"/>
			<path class="st3" d="M542.92,126.5c0,29.4-38.51,63.6-71.96,87.78c-17.35,10.39-35.98,19.05-47.7,24.16
				c0-2.74-0.08-5.46-0.23-8.16c-0.31-5.78-0.94-11.49-1.9-17.08c17.93-11.36,33.61-22.73,46.84-33.59
				c32.59-26.76,50.34-50.53,50.34-64.06c0-19.15-45.13-15.04-45.13-15.04S542.92,74.53,542.92,126.5z"/>
			<path class="st4" d="M423.26,252.31c0,91.39-67.97,165.47-151.8,165.47c-52.73,0-99.17-29.31-126.39-73.81l12.68-4.8
				c27.8,31.44,68.45,51.26,113.71,51.26c81.64,0,148.23-64.45,151.65-145.26C423.22,247.54,423.26,249.92,423.26,252.31z"/>
		</g>
		<g>
			<path class="st5" d="M292.12,329.26c-5.43,1.35-13.24,0.82-18.65,2.08l-48.62,2.72v-51.2c6.78-1.3,9.69-2.39,10.6-3.07
				c3.78-2.81,7.67-23.69,7.67-23.69l4.85,5.29c0,0,12.36,0.63,16.28,0c-2.25,0-13.14-0.42-14.98-0.89
				c-1.83-0.47-20.5-24.5-21.91-26.49c-1.41-1.99-1.19-23.46-1.19-23.46s-2.81,0.45-3.79,0c-0.98-0.45-7.14-17.95-7.5-19.13
				c-0.37-1.18,2.98-5.63,3.84-6.08c0.86-0.45,2.72,1.79,2.72,1.79v-4.34h37.99h4.21h12.11h7.59h36.48v4.34c0,0,0.93-2.24,1.79-1.79
				c0.86,0.45,3.96,4.9,3.59,6.08c-0.37,1.18-6.87,18.68-7.85,19.13c-0.98,0.45-3.97,0-3.97,0s0.13,21.47-1.28,23.46
				c-1.41,1.99-20.15,26.02-21.98,26.49c-1.83,0.47-12.8,0.89-15.05,0.89c3.93,0.63,16.17,0,16.17,0l4.64-5.29
				c0,0,2.95,20.88,6.73,23.69c0.77,0.57,7.04,1.49,7.04,2.62v30.78C309.67,324.22,301.25,326.99,292.12,329.26z M333.41,286.23
				c-3.39-4.77-13.22-11.28-17.44-18.94c1.27-3.29,2.26-5.74,2.7-6.12c0.81-0.7,11.35-2.32,14.74-3.89V286.23z M330.02,320.53
				v-33.55c13.57,3.92,32.41,8.16,34.2,9.73c0.08,0.07,0.59,0.17,0.68,0.3C351.53,310.37,343.59,316.95,330.02,320.53z
				 M343.59,277.77v-22.48c3.39-0.62,3.49-1.14,3.93-1.47c1.81-1.35,3.1-11.34,3.1-11.34l2.03,2.53c0,0,5.77,0.3,7.65,0
				c-1.08,0-6.36-0.2-7.24-0.43c-0.88-0.23-9.84-11.72-10.52-12.68c-0.68-0.95-0.58-11.23-0.58-11.23s-1.35,0.22-1.82,0
				c-0.47-0.21-3.42-8.59-3.59-9.15c-0.18-0.57,3.38-2.69,3.79-2.91c0.41-0.22,3.26,0.86,3.26,0.86v-6.35h14.26h2.01h5.79h3.63
				h15.01v6.35c0,0,1.67-1.07,2.07-0.86c0.41,0.21,2.5,2.34,2.33,2.91c-0.17,0.57-2.98,8.94-3.45,9.15c-0.47,0.22-1.75,0-1.75,0
				s0.14,10.27-0.54,11.23c-0.68,0.95-9.6,12.45-10.48,12.68c-0.88,0.22-6.1,0.43-7.18,0.43c1.88,0.3,7.75,0,7.75,0l2.22-2.53
				c0,0,0.93,9.99,2.74,11.34c0.37,0.27,2.89,0.71,2.89,1.25v22.69H343.59z M407.71,261.91c0.39,0.34,1.25,2.21,2.23,4.82
				c-4.43,8.27-12.07,15.23-18.85,20.16v-29.64C397.87,259.14,406.85,261.16,407.71,261.91z M336.81,196.35h12.18l-10.97,0.85
				c0,0-0.2-16.71,15.44-22.87c2.21,9.42,3.71,12.1,3.71,12.1V172.6h2.59h6.32h4.66v13.83c0,0,0.47-1.65,2.68-11.07
				c15.63,6.16,14.41,21.84,14.41,21.84l-10.99-0.85h14.25v6.78h-25.02h-0.11h-6.11h-0.11h-22.94V196.35z M211.28,165.82h29.64
				l-22.93-1.3c0,0-1.72-36.46,30.95-49.34c4.61,19.69,6.44,23.75,6.44,23.75v-27.39h8.04h13.21h9.28v27.39
				c0,0,1.22-3.46,5.82-23.14c32.67,12.88,30.24,48.74,30.24,48.74l-22.85,1.3h30.88v16.96h-53.38h-0.22h-12.76h-0.22h-52.14V165.82
				z M223.35,261.91c0.39,0.34,0.14,2.21,1.12,4.82c-4.43,8.27-9.79,15.23-19.97,20.16v-29.64
				C214.68,259.14,222.49,261.16,223.35,261.91z M160.4,277.77v-22.48c0-0.62,4.02-1.14,4.45-1.47c1.81-1.35,3.36-11.34,3.36-11.34
				l2.17,2.53c0,0,5.83,0.3,7.71,0c-1.08,0-6.33-0.2-7.2-0.43c-0.88-0.23-9.83-11.72-10.5-12.68c-0.68-0.95-0.58-11.23-0.58-11.23
				s-1.35,0.22-1.82,0c-0.47-0.21-3.42-8.59-3.59-9.15c-0.18-0.57-0.54-2.69-0.13-2.91c0.41-0.22-0.66,0.86-0.66,0.86v-6.35h22.1
				h2.01h5.79h3.63h13.96v6.35c0,0,2.19-1.07,2.6-0.86c0.41,0.21,2.77,2.34,2.59,2.91c-0.18,0.57-2.85,8.94-3.32,9.15
				c-0.47,0.22-1.68,0-1.68,0s0.17,10.27-0.5,11.23c-0.68,0.95-9.58,12.45-10.46,12.68c-0.88,0.22-6.1,0.43-7.17,0.43
				c1.88,0.3,7.75,0,7.75,0l2.23-2.53c0,0,2.1,9.99,3.91,11.34c0.37,0.27,4.06,0.71,4.06,1.25v22.69H160.4z M153.61,196.35h13.24
				l-10.97,0.85c0,0-0.72-16.71,14.91-22.87c2.2,9.42,3.18,12.1,3.18,12.1V172.6h3.65h6.32h7v13.83c0,0-0.7-1.65,1.51-11.07
				c15.63,6.16,13.83,21.84,13.83,21.84l-11.57-0.85h9.8v6.78h-20.57h-0.11h-6.11h-0.11h-24V196.35z M133.3,267.29
				c1.27-3.29,1.99-5.74,2.44-6.12c0.81-0.7,11.09-2.32,14.48-3.89v28.95C146.83,281.46,137.52,274.95,133.3,267.29z M172.17,307.95
				c2.65-6.87,2.65-11.99,3.58-12.8c1.68-1.46,18.57-4.84,28.75-8.13v49.03c-3.39,0.71-6.13,1.39-10.23,2.03
				C184.52,329.56,178.47,319.37,172.17,307.95z"/>
			<path class="st6" d="M263.65,182.78h12.76h0.22h53.38v-16.96h-30.88l22.93-1.3c0,0,2.35-36.46-30.33-49.34
				c-4.61,19.69-5.82,23.75-5.82,23.75v-27.39h-9.28h-13.21h-8.04v27.39c0,0-1.84-3.46-6.44-23.14
				c-32.67,12.88-30.55,48.74-30.55,48.74l22.54,1.3h-29.64v16.96h52.14H263.65z"/>
			<path class="st6" d="M177.72,203.13h6.11h0.11h20.57v-6.78h-9.8l10.97,0.85c0,0,2.4-16.71-13.23-22.87
				c-2.21,9.42-1.51,12.1-1.51,12.1V172.6h-7h-6.32h-3.65v13.83c0,0-0.98-1.65-3.18-11.07c-15.63,6.16-14.67,21.84-14.67,21.84
				l10.73-0.85h-13.24v6.78h24H177.72z"/>
			<path class="st7" d="M201.11,255.07c0-0.54-3.69-0.98-4.06-1.25c-1.81-1.35-3.69-11.34-3.69-11.34l-2.33,2.53c0,0-5.92,0.3-7.8,0
				c1.08,0,6.29-0.2,7.16-0.43c0.88-0.23,9.81-11.72,10.48-12.68c0.68-0.95,0.57-11.23,0.57-11.23s1.34,0.22,1.81,0
				c0.47-0.21,3.41-8.59,3.59-9.15c0.18-0.57-2.73-2.69-3.14-2.91c-0.41-0.22-2.6,0.86-2.6,0.86v-6.35h-13.96h-3.63h-5.79h-2.01
				h-22.1v6.35c0,0,1.07-1.07,0.66-0.86c-0.41,0.21-1.14,2.34-0.96,2.91c0.18,0.57,3.67,8.94,4.14,9.15c0.47,0.22,2.09,0,2.09,0
				s0.03,10.27,0.71,11.23c0.68,0.95,9.69,12.45,10.57,12.68c0.88,0.22,6.15,0.43,7.22,0.43c-1.88,0.3-7.72,0-7.72,0l-2.21-2.53
				c0,0-1.44,9.99-3.24,11.34c-0.44,0.33-4.45,0.85-4.45,1.47v22.48h40.71V255.07z"/>
			<path class="st7" d="M150.22,257.28c-3.39,1.57-13.35,3.19-14.15,3.89c-0.44,0.39-1.82,2.84-3.09,6.12
				c4.22,7.66,13.85,14.17,17.24,18.94V257.28z"/>
			<path class="st7" d="M204.5,286.9c10.18-4.93,16.58-11.89,21.01-20.16c-0.97-2.61-2.81-4.49-3.2-4.82
				c-0.86-0.75-7.63-2.78-17.81-4.65V286.9z"/>
			<path class="st6" d="M359.86,203.13h6.11h0.11h25.02v-6.78h-14.25l10.97,0.85c0,0,1.23-16.71-14.4-22.87
				c-2.2,9.42-2.68,12.1-2.68,12.1V172.6h-4.66h-6.32h-2.59v13.83c0,0-1.51-1.65-3.71-11.07c-15.63,6.16-14.93,21.84-14.93,21.84
				l10.47-0.85h-12.18v6.78h22.94H359.86z"/>
			<path class="st7" d="M380.91,255.07c0-0.54-2.52-0.98-2.89-1.25c-1.81-1.35-3.11-11.34-3.11-11.34l-2.04,2.53
				c0,0-5.77,0.3-7.65,0c1.08,0,6.36-0.2,7.24-0.43c0.88-0.23,9.84-11.72,10.52-12.68c0.68-0.95,0.58-11.23,0.58-11.23
				s1.35,0.22,1.82,0c0.47-0.21,3.42-8.59,3.59-9.15c0.18-0.57-2.2-2.69-2.61-2.91c-0.41-0.22-2.07,0.86-2.07,0.86v-6.35h-15.01
				h-3.63h-5.79h-2.01h-14.26v6.35c0,0-2.85-1.07-3.26-0.86c-0.41,0.21-3.1,2.34-2.92,2.91c0.18,0.57,2.69,8.94,3.15,9.15
				c0.47,0.22,1.6,0,1.6,0s-0.21,10.27,0.46,11.23c0.68,0.95,9.56,12.45,10.44,12.68c0.88,0.22,6.08,0.43,7.16,0.43
				c-1.88,0.3-7.75,0-7.75,0l-2.23-2.53c0,0-0.92,9.99-2.72,11.34c-0.44,0.33-0.54,0.85-3.93,1.47v22.48h37.32V255.07z"/>
			<path class="st7" d="M315.97,267.29c4.22,7.66,14.05,14.17,17.44,18.94v-28.95c-3.39,1.57-13.94,3.19-14.74,3.89
				C318.23,261.56,317.24,264.01,315.97,267.29z"/>
			<path class="st7" d="M391.09,286.9c6.79-4.93,14.35-11.89,18.78-20.16c-0.97-2.61-1.7-4.49-2.08-4.82
				c-0.86-0.75-9.91-2.78-16.7-4.65V286.9z"/>
			<path class="st7" d="M309.67,282.41c0-1.13-6.28-2.05-7.04-2.62c-3.78-2.81-6.99-23.69-6.99-23.69l-4.51,5.29
				c0,0-12.19,0.63-16.11,0c2.25,0,13.23-0.42,15.06-0.89c1.83-0.47,20.54-24.5,21.95-26.49c1.41-1.99,1.2-23.46,1.2-23.46
				s2.82,0.45,3.8,0c0.98-0.45,7.14-17.95,7.51-19.13c0.37-1.18-2.04-5.63-2.9-6.08c-0.86-0.45-1.78,1.79-1.78,1.79v-4.34h-36.48
				h-7.59h-12.11h-4.21h-37.99v4.34c0,0-1.86-2.24-2.72-1.79c-0.86,0.45-4.43,4.9-4.06,6.08c0.37,1.18,6.64,18.68,7.62,19.13
				c0.98,0.45,3.85,0,3.85,0s-0.19,21.47,1.23,23.46c1.41,1.99,20.12,26.02,21.95,26.49c1.83,0.47,12.78,0.89,15.04,0.89
				c-3.93,0.63-16.18,0-16.18,0l-4.64-5.29c0,0-4.31,20.88-8.08,23.69c-0.92,0.68-3.82,1.77-10.6,3.07v51.2l48.88-2.72
				c5.4-1.26,12.54-0.73,17.97-2.08c9.13-2.28,17.96-5.04,17.96-16.08V282.41z"/>
			<path class="st7" d="M194.27,338.09c4.1-0.64,6.84-1.32,10.23-2.03v-49.03c-10.18,3.29-27.07,6.66-28.75,8.13
				c-0.93,0.8-3.12,5.92-5.77,12.8C176.27,319.37,184.52,329.56,194.27,338.09z"/>
			<path class="st7" d="M330.02,286.98v33.55c13.57-3.58,21.09-10.16,34.46-23.53c-0.09-0.12,0.24-0.23,0.17-0.3
				C362.85,295.14,343.59,290.89,330.02,286.98z"/>
		</g>
	</g>
	<g>
		<g>
			<text transform="matrix(1 0 0 1 596.6826 272.7247)" class="st0 st8 st9">EVERGREEN</text>
		</g>
		<g>
			<text transform="matrix(1 0 0 1 1195.2178 272.7247)" class="st2 st8 st9">SAFETY</text>
		</g>
		<path class="st0" d="M1549.91,285.45c-2.66,0-4.89,1.87-5.43,4.37h-349.86c-2.32-13.88-6.39-38.35-6.39-38.35l-1.14-6.87
			l-12.78,72.68l-9.16-49.64l-10.82,31.61l-4.12-9.43H604.18c-0.68-2.3-2.81-3.97-5.33-3.97c-3.07,0-5.56,2.49-5.56,5.56
			c0,3.07,2.49,5.56,5.56,5.56c2.8,0,5.11-2.07,5.5-4.77h544.29l5.96,13.62l9.85-28.8l9.91,53.69l12.66-71.99
			c1.43,8.58,3.88,23.26,5.41,32.48l0.17,1h351.88c0.55,2.5,2.77,4.37,5.43,4.37c3.07,0,5.56-2.49,5.56-5.56
			C1555.48,287.94,1552.99,285.45,1549.91,285.45z"/>
		<g>
			<text transform="matrix(1 0 0 1 594.8291 344.2745)" class="st10 st11 st12">Safety Isn’t Expensive It’s Priceless!!!</text>
		</g>
		<g>
			<text transform="matrix(1 0 0 1 1549.6182 214.7003)" class="st10 st11 st12">®</text>
		</g>
	</g>
</g>
</svg>
