<svg id="Layer_1" data-name="Layer 1" xmlns="http://www.w3.org/2000/svg" viewBox="0 0 1588.56 527.87"><title>logo</title><path d="M481.11,155.72a182.24,182.24,0,0,1-16.31,13.53A325.73,325.73,0,0,1,432.74,190,144.34,144.34,0,0,0,306.53,95.91c-.88-.07-1.78-.12-2.66-.16l-2.84-.1c-1.23,0-2.47-.05-3.72-.05s-2.48,0-3.71.05-2.43.08-3.64.14A144.3,144.3,0,0,0,153,239.89c0,2.08,0,4.16.15,6.21a143.53,143.53,0,0,0,22.06,70.72c-2.83,1.21-5.61,2.35-8.34,3.46a314,314,0,0,1-43.36,14.13c-56.17,13.5-84.25-1.3-84.25-21.73,0-25.66,29.11-47.51,29.89-48.08-.54,1-30.76,55.81,16.91,46.78,6-1.13,15.62-3.27,28-6.3-5.67-21.54-7.89-40.34-7.89-54.14,0-55.9,18.19-179.39,18.19-179.39l172.89-58.5L470.2,71.55S476,110.62,481,154.77h0C481,155.09,481.07,155.41,481.11,155.72Z" fill="#00a450"/><path d="M488.4,250.94c0,55.89-36.4,193.69-191.09,263.88C209.23,474.85,159.5,413,133,356.75L177.18,340c25.86,42.3,70,70.16,120.13,70.16,79.69,0,144.3-70.42,144.3-157.29,0-2.28,0-4.54-.15-6.79.11-2,.15-4.13.15-6.21v-.18a416.55,416.55,0,0,0,45.34-23C487.86,229.5,488.4,241.24,488.4,250.94Z" fill="#e22f29"/><path d="M555.35,133.3c0,27.94-36.61,60.45-68.4,83.44a416.55,416.55,0,0,1-45.34,23q0-3.9-.23-7.76a140,140,0,0,0-1.8-16.24,449.16,449.16,0,0,0,44.52-31.93c31-25.44,47.85-48,47.85-60.88,0-18.2-42.9-14.3-42.9-14.3S555.35,83.9,555.35,133.3Z" fill="#d32327"/><path d="M441.61,252.89c0,86.87-64.61,157.29-144.3,157.29-50.12,0-94.27-27.86-120.13-70.16l12-4.56A144.27,144.27,0,0,0,441.46,246.1C441.57,248.35,441.61,250.61,441.61,252.89Z" fill="#d32527"/><path d="M317,326c-5.16,1.29-12.59.79-17.72,2L253,330.6V281.93c6.45-1.24,9.21-2.27,10.08-2.92,3.59-2.68,7.3-22.53,7.3-22.53l4.61,5s11.74.6,15.48,0c-2.14,0-12.5-.4-14.24-.85s-19.48-23.29-20.83-25.18-1.12-22.3-1.12-22.3-2.67.43-3.6,0-6.79-17.06-7.14-18.19,2.84-5.35,3.65-5.78,2.59,1.71,2.59,1.71v-4.13h93.52v4.13s.88-2.13,1.69-1.71,3.77,4.66,3.42,5.78-6.54,17.76-7.47,18.19-3.77,0-3.77,0,.13,20.41-1.22,22.3-19.15,24.74-20.89,25.18-12.17.85-14.31.85c3.73.6,15.37,0,15.37,0l4.41-5s2.81,19.85,6.4,22.53c.73.54,6.69,1.41,6.69,2.48v29.26C333.63,321.24,325.63,323.87,317,326Zm39.25-40.9c-3.22-4.54-12.56-10.72-16.58-18,1.21-3.13,2.15-5.46,2.57-5.82.77-.67,10.79-2.2,14-3.7ZM353,317.73V285.84c12.9,3.72,30.8,7.75,32.51,9.24.08.06.56.17.65.28C373.43,308.08,365.88,314.33,353,317.73Zm12.9-40.65V255.72c3.22-.59,3.32-1.09,3.73-1.4,1.72-1.28,2.94-10.77,2.94-10.77l1.94,2.4a58.74,58.74,0,0,0,7.27,0c-1,0-6.05-.19-6.88-.4s-9.36-11.15-10-12.05-.56-10.67-.56-10.67a4.84,4.84,0,0,1-1.73,0c-.44-.21-3.25-8.17-3.41-8.7s3.21-2.56,3.6-2.77,3.1.82,3.1.82v-6h38.7v6s1.58-1,2-.82,2.38,2.23,2.21,2.77-2.84,8.49-3.28,8.7a4.44,4.44,0,0,1-1.66,0s.13,9.76-.51,10.67-9.13,11.83-10,12.05-5.8.4-6.83.4a60.42,60.42,0,0,0,7.37,0l2.11-2.4s.89,9.49,2.6,10.77c.35.26,2.75.68,2.75,1.19v21.57ZM426.83,262A19.26,19.26,0,0,1,429,266.6c-4.21,7.86-11.48,14.48-17.92,19.17V257.59C417.47,259.37,426,261.3,426.83,262Zm-67.4-62.32H371l-10.43.81s-.19-15.88,14.67-21.74c2.1,9,3.53,11.5,3.53,11.5V177.12h12.9v13.14s.44-1.57,2.54-10.52c14.86,5.85,13.7,20.76,13.7,20.76l-10.44-.81H411v6.45h-51.6Zm-119.32-29h28.18l-21.8-1.23s-1.64-34.67,29.42-46.91c4.38,18.72,6.13,22.58,6.13,22.58v-26h29v26s1.15-3.29,5.53-22c31.06,12.24,28.75,46.33,28.75,46.33l-21.72,1.23H353v16.12H240.11ZM251.59,262c.36.32.13,2.11,1.06,4.59-4.21,7.86-9.31,14.48-19,19.17V257.59C243.34,259.37,250.77,261.3,251.59,262Zm-59.85,15.07V255.72c0-.59,3.82-1.09,4.24-1.4,1.72-1.28,3.19-10.77,3.19-10.77l2.06,2.4a59.77,59.77,0,0,0,7.33,0c-1,0-6-.19-6.84-.4s-9.34-11.15-10-12.05-.55-10.67-.55-10.67a4.79,4.79,0,0,1-1.72,0c-.45-.21-3.25-8.17-3.42-8.7s-.51-2.56-.12-2.77-.63.82-.63.82v-6h45.15v6s2.08-1,2.48-.82,2.63,2.23,2.46,2.77-2.71,8.49-3.16,8.7a4.07,4.07,0,0,1-1.59,0s.16,9.76-.48,10.67-9.11,11.83-10,12.05-5.79.4-6.82.4a60.42,60.42,0,0,0,7.37,0l2.12-2.4s2,9.49,3.71,10.77c.35.26,3.86.68,3.86,1.19v21.57Zm-6.45-77.39h12.59l-10.43.81s-.69-15.88,14.17-21.74c2.09,9,3,11.5,3,11.5V177.12h16.13v13.14s-.67-1.57,1.43-10.52c14.86,5.85,13.15,20.76,13.15,20.76l-11-.81h9.32v6.45H185.29ZM166,267.13c1.21-3.13,1.9-5.46,2.32-5.82.76-.67,10.54-2.2,13.76-3.7v27.52C178.85,280.59,170,274.41,166,267.13Zm36.95,38.64c2.52-6.53,2.52-11.4,3.4-12.16,1.6-1.4,17.65-4.6,27.33-7.73v46.61c-3.23.68-5.83,1.32-9.73,1.93C214.68,326.31,208.92,316.63,202.94,305.77Z" fill="#fff"/><path d="M289.89,186.79H353V170.67H323.62l21.8-1.23s2.23-34.67-28.83-46.91c-4.38,18.72-5.53,22.58-5.53,22.58v-26H282v26s-1.75-3.29-6.13-22c-31.06,12.24-29,46.33-29,46.33l21.42,1.23H240.11v16.12h49.78Z" fill="#ec1c24"/><path d="M208.21,206.14h25.46v-6.45h-9.32l10.43.81s2.28-15.88-12.58-21.74c-2.1,9-1.43,11.5-1.43,11.5V177.12H204.64v13.14s-.93-1.57-3-10.52c-14.86,5.85-14,20.76-14,20.76l10.21-.81H185.29v6.45h22.92Z" fill="#ec1c24"/><path d="M230.44,255.51c0-.51-3.51-.93-3.85-1.19-1.72-1.28-3.51-10.77-3.51-10.77l-2.22,2.4a61.1,61.1,0,0,1-7.41,0c1,0,6-.19,6.81-.4s9.32-11.15,10-12.05.54-10.67.54-10.67a4.79,4.79,0,0,0,1.72,0c.45-.21,3.25-8.17,3.42-8.7s-2.6-2.56-3-2.77-2.48.82-2.48.82v-6H185.29v6s1-1,.63-.82a4.58,4.58,0,0,0-.91,2.77c.16.53,3.48,8.49,3.93,8.7a6.39,6.39,0,0,0,2,0s0,9.76.68,10.67,9.2,11.83,10,12.05,5.84.4,6.86.4a59.94,59.94,0,0,1-7.34,0l-2.1-2.4S197.69,253,196,254.32c-.41.31-4.23.81-4.23,1.4v21.36h38.7Z" fill="#00a551"/><path d="M182.07,257.61c-3.22,1.5-12.69,3-13.45,3.7a23.43,23.43,0,0,0-2.94,5.82c4,7.28,13.17,13.46,16.39,18Z" fill="#00a551"/><path d="M233.67,285.77a43.14,43.14,0,0,0,20-19.17,13.07,13.07,0,0,0-3-4.59c-.82-.71-7.26-2.64-16.93-4.42Z" fill="#00a551"/><path d="M381.34,206.14H411v-6.45H397.48l10.43.81s1.17-15.88-13.69-21.74c-2.1,9-2.54,11.5-2.54,11.5V177.12h-12.9v13.14s-1.43-1.57-3.53-10.52c-14.86,5.85-14.19,20.76-14.19,20.76l9.95-.81H359.43v6.45h21.91Z" fill="#ec1c24"/><path d="M401.35,255.51c0-.51-2.4-.93-2.74-1.19-1.72-1.28-3-10.77-3-10.77l-1.93,2.4a58.9,58.9,0,0,1-7.28,0c1,0,6.05-.19,6.88-.4s9.36-11.15,10-12.05.55-10.67.55-10.67a4.9,4.9,0,0,0,1.74,0c.44-.21,3.25-8.17,3.41-8.7s-2.08-2.56-2.47-2.77-2,.82-2,.82v-6h-38.7v6s-2.71-1-3.1-.82-2.95,2.23-2.78,2.77,2.56,8.49,3,8.7a3.7,3.7,0,0,0,1.52,0s-.2,9.76.44,10.67,9.09,11.83,9.93,12.05,5.78.4,6.8.4a60.44,60.44,0,0,1-7.37,0l-2.12-2.4s-.87,9.49-2.59,10.77c-.41.31-.51.81-3.73,1.4v21.36h35.47Z" fill="#00a551"/><path d="M339.62,267.13c4,7.28,13.36,13.46,16.58,18V257.61c-3.22,1.5-13.24,3-14,3.7C341.77,261.67,340.83,264,339.62,267.13Z" fill="#00a551"/><path d="M411,285.77c6.44-4.69,13.64-11.31,17.85-19.17-.92-2.48-1.61-4.27-2-4.59-.82-.71-9.43-2.64-15.87-4.42Z" fill="#00a551"/><path d="M333.63,281.49c0-1.07-6-1.94-6.69-2.48-3.59-2.68-6.65-22.53-6.65-22.53l-4.29,5s-11.59.6-15.32,0c2.14,0,12.57-.4,14.31-.85s19.53-23.29,20.87-25.18,1.15-22.3,1.15-22.3,2.68.43,3.61,0,6.79-17.06,7.14-18.19-1.95-5.35-2.76-5.78-1.69,1.71-1.69,1.71v-4.13H249.79v4.13s-1.77-2.13-2.59-1.71-4.21,4.66-3.86,5.78,6.31,17.76,7.24,18.19,3.66,0,3.66,0-.18,20.41,1.17,22.3,19.12,24.74,20.87,25.18,12.15.85,14.29.85c-3.74.6-15.38,0-15.38,0l-4.41-5s-4.1,19.85-7.69,22.53c-.87.65-3.63,1.68-10.08,2.92V330.6L299.48,328c5.13-1.19,11.92-.69,17.08-2,8.68-2.16,17.07-4.79,17.07-15.28Z" fill="#00a551"/><path d="M223.94,334.42c3.9-.61,6.5-1.25,9.73-1.93V285.88c-9.68,3.13-25.73,6.33-27.33,7.73-.88.76-3,5.63-5.49,12.16A106.26,106.26,0,0,0,223.94,334.42Z" fill="#00a551"/><path d="M353,285.84v31.89c12.9-3.4,20-9.65,32.76-22.37-.09-.11.23-.22.15-.28C384.18,293.59,365.88,289.56,353,285.84Z" fill="#00a551"/><path d="M609.54,217.15h46l6.29,17.43-7.15,2.57a23.45,23.45,0,0,0-4.25-6.88,11.83,11.83,0,0,0-5.38-3.46,25.05,25.05,0,0,0-6.85-.85h-8.42v13.76h2.76a12.49,12.49,0,0,0,4.21-.46,2.84,2.84,0,0,0,1.56-1.42,10,10,0,0,0,.48-3.85v-2.1h7v23.36h-7v-2.38a8,8,0,0,0-.58-3.54,3,3,0,0,0-1.56-1.51,15,15,0,0,0-4.38-.39h-2.49v12.68a8.59,8.59,0,0,0,.19,2.45,1.41,1.41,0,0,0,.77.68,8,8,0,0,0,2.48.24h4.62a22.69,22.69,0,0,0,8.74-1.49,16.77,16.77,0,0,0,6.35-4.81,23.49,23.49,0,0,0,4.29-7.88l7.22,2.49-7.24,20.5h-47.7v-7.63h1.38a11.53,11.53,0,0,0,3.72-.39,2.41,2.41,0,0,0,1.34-1.39,15.67,15.67,0,0,0,.2-3.36v-30a9.34,9.34,0,0,0-.34-3.2,2.27,2.27,0,0,0-1.05-1.13,6.87,6.87,0,0,0-2.8-.37h-2.45Z" fill="#00a450"/><path d="M664.84,217.15H691v7.63h-.83a14.55,14.55,0,0,0-3.18.2,2.39,2.39,0,0,0-1.64,2.13,13.28,13.28,0,0,0,.91,3.4L696.07,258l10.4-28.17a10.59,10.59,0,0,0,.75-2.89,1.85,1.85,0,0,0-.73-1.62,6.3,6.3,0,0,0-3.15-.51h-1.7v-7.63H723v7.63a7.32,7.32,0,0,0-3.56.59c-.92.61-1.84,2.08-2.76,4.43l-16.53,42.49H687.72l-16.8-42.77a16,16,0,0,0-1.58-3.28,3.68,3.68,0,0,0-1.56-1.11,8,8,0,0,0-2.94-.35Z" fill="#00a450"/><path d="M726.14,217.15h46.05l6.29,17.43-7.16,2.57a23.44,23.44,0,0,0-4.24-6.88,11.88,11.88,0,0,0-5.38-3.46,25.08,25.08,0,0,0-6.86-.85h-8.42v13.76h2.77a12.53,12.53,0,0,0,4.21-.46,2.91,2.91,0,0,0,1.56-1.42,10.1,10.1,0,0,0,.47-3.85v-2.1h7v23.36h-7v-2.38a8.22,8.22,0,0,0-.57-3.54,3,3,0,0,0-1.56-1.51,15,15,0,0,0-4.39-.39h-2.49v12.68a8.43,8.43,0,0,0,.2,2.45,1.38,1.38,0,0,0,.77.68,7.89,7.89,0,0,0,2.47.24h4.63a22.73,22.73,0,0,0,8.74-1.49,16.85,16.85,0,0,0,6.35-4.81,23.67,23.67,0,0,0,4.29-7.88l7.22,2.49-7.24,20.5H726.14v-7.63h1.39a11.45,11.45,0,0,0,3.71-.39,2.43,2.43,0,0,0,1.35-1.39,15.67,15.67,0,0,0,.2-3.36v-30a9.61,9.61,0,0,0-.34-3.2,2.27,2.27,0,0,0-1.05-1.13,6.9,6.9,0,0,0-2.8-.37h-2.46Z" fill="#00a450"/><path d="M784.25,217.15h34a48.68,48.68,0,0,1,7.18.59,18.06,18.06,0,0,1,7,2.61,14.42,14.42,0,0,1,4.88,5.1,13.91,13.91,0,0,1,1.74,7,12.84,12.84,0,0,1-4.48,10.18A22.39,22.39,0,0,1,824,247.66l11.35,13.21.47.59a11.35,11.35,0,0,0,2,2,6.24,6.24,0,0,0,1.82.92,8.82,8.82,0,0,0,2.53.28h2.37v7.63H826.9l-17.71-23.76h-4.58v11a12.43,12.43,0,0,0,.31,3.62,2.24,2.24,0,0,0,1,1.15,6.78,6.78,0,0,0,2.79.37h2.53v7.63h-27v-7.63h2.46a6.76,6.76,0,0,0,2.77-.41,2.67,2.67,0,0,0,1.21-1.25,11.82,11.82,0,0,0,.2-3V229a7.87,7.87,0,0,0-.3-2.59,1.6,1.6,0,0,0-1-1,5.25,5.25,0,0,0-2.19-.43l-1.11,0h-2.07Zm20.36,9v14.27h8.18a22,22,0,0,0,7.21-.89,7.51,7.51,0,0,0,3.6-2.55,6.7,6.7,0,0,0,1.2-4,6.25,6.25,0,0,0-1.12-3.74,6.58,6.58,0,0,0-3.2-2.31,21.91,21.91,0,0,0-6.78-.75Z" fill="#00a450"/><path d="M880,242.88H906.9v7.71h-2a6.91,6.91,0,0,0-2.71.36,2.24,2.24,0,0,0-1.09,1.12,8.33,8.33,0,0,0-.35,3v17.27h-8.1l-2.09-4a29.87,29.87,0,0,1-7.71,3.67,27.92,27.92,0,0,1-8.29,1.23A26.33,26.33,0,0,1,851,259.29a30.3,30.3,0,0,1-3.61-14.79A29.24,29.24,0,0,1,851,230a26.13,26.13,0,0,1,10-10.1,27.38,27.38,0,0,1,13.93-3.7,28.94,28.94,0,0,1,7.24.93,23.1,23.1,0,0,1,6.18,2.47l1.47-2.45h5.53l5,18.26L893,237.78a50.69,50.69,0,0,0-5.87-8.18,16,16,0,0,0-4.94-3.4,13.4,13.4,0,0,0-5.43-1.22,12.39,12.39,0,0,0-7,2.17,14.61,14.61,0,0,0-5.16,6.34,24.37,24.37,0,0,0-1.9,10.1,28.16,28.16,0,0,0,2.08,11.31,16,16,0,0,0,5.43,7.09,12.8,12.8,0,0,0,7.4,2.32,13.08,13.08,0,0,0,5.39-1.15,8,8,0,0,0,3.5-2.57,6.85,6.85,0,0,0,.95-3.83v-2a7.64,7.64,0,0,0-.28-2.65A2.57,2.57,0,0,0,886,251a7.44,7.44,0,0,0-2.86-.36H880Z" fill="#00a450"/><path d="M910.5,217.15h34a48.68,48.68,0,0,1,7.18.59,18,18,0,0,1,7,2.61,14.53,14.53,0,0,1,4.89,5.1,14,14,0,0,1,1.74,7,12.85,12.85,0,0,1-4.49,10.18,22.4,22.4,0,0,1-10.61,5.07l11.34,13.21.47.59a11.35,11.35,0,0,0,2,2,6.24,6.24,0,0,0,1.82.92,8.82,8.82,0,0,0,2.53.28h2.37v7.63H953.15l-17.71-23.76h-4.58v11a12.43,12.43,0,0,0,.31,3.62,2.24,2.24,0,0,0,1,1.15,6.78,6.78,0,0,0,2.79.37h2.53v7.63h-27v-7.63H913a6.71,6.71,0,0,0,2.76-.41,2.67,2.67,0,0,0,1.21-1.25,11.82,11.82,0,0,0,.2-3V229a7.87,7.87,0,0,0-.3-2.59,1.6,1.6,0,0,0-1-1,5.25,5.25,0,0,0-2.19-.43l-1.11,0H910.5Zm20.36,9v14.27H939a22,22,0,0,0,7.21-.89,7.46,7.46,0,0,0,3.6-2.55,6.71,6.71,0,0,0,1.21-4,6.25,6.25,0,0,0-1.13-3.74,6.58,6.58,0,0,0-3.2-2.31,21.91,21.91,0,0,0-6.78-.75Z" fill="#00a450"/><path d="M973.82,217.15h46l6.29,17.43-7.16,2.57a23.25,23.25,0,0,0-4.25-6.88,11.85,11.85,0,0,0-5.37-3.46,25.08,25.08,0,0,0-6.86-.85H994.1v13.76h2.77a12.53,12.53,0,0,0,4.21-.46,2.91,2.91,0,0,0,1.56-1.42,10.1,10.1,0,0,0,.47-3.85v-2.1h7v23.36h-7v-2.38a8.22,8.22,0,0,0-.57-3.54,3,3,0,0,0-1.56-1.51,15,15,0,0,0-4.39-.39H994.1v12.68a8.43,8.43,0,0,0,.2,2.45,1.38,1.38,0,0,0,.77.68,7.89,7.89,0,0,0,2.47.24h4.63a22.73,22.73,0,0,0,8.74-1.49,16.85,16.85,0,0,0,6.35-4.81,23.84,23.84,0,0,0,4.29-7.88l7.22,2.49-7.24,20.5H973.82v-7.63h1.39a11.45,11.45,0,0,0,3.71-.39,2.43,2.43,0,0,0,1.35-1.39,16,16,0,0,0,.19-3.36v-30a9.7,9.7,0,0,0-.33-3.2,2.27,2.27,0,0,0-1-1.13,6.9,6.9,0,0,0-2.8-.37h-2.46Z" fill="#00a450"/><path d="M1032.13,217.15h46l6.29,17.43-7.15,2.57a23.67,23.67,0,0,0-4.25-6.88,11.88,11.88,0,0,0-5.38-3.46,25.08,25.08,0,0,0-6.86-.85h-8.42v13.76h2.77a12.49,12.49,0,0,0,4.21-.46,2.84,2.84,0,0,0,1.56-1.42,10,10,0,0,0,.48-3.85v-2.1h7v23.36h-7v-2.38a8,8,0,0,0-.58-3.54,3,3,0,0,0-1.56-1.51,15,15,0,0,0-4.39-.39h-2.49v12.68a8.43,8.43,0,0,0,.2,2.45,1.38,1.38,0,0,0,.77.68,8,8,0,0,0,2.48.24h4.62a22.69,22.69,0,0,0,8.74-1.49,16.85,16.85,0,0,0,6.35-4.81,23.49,23.49,0,0,0,4.29-7.88l7.22,2.49-7.24,20.5h-47.7v-7.63h1.38a11.57,11.57,0,0,0,3.72-.39,2.41,2.41,0,0,0,1.34-1.39,15.67,15.67,0,0,0,.2-3.36v-30a9.34,9.34,0,0,0-.34-3.2,2.27,2.27,0,0,0-1-1.13,6.9,6.9,0,0,0-2.8-.37h-2.45Z" fill="#00a450"/><path d="M1090.47,217.15h22.37L1129,249.32V229.64a10.23,10.23,0,0,0-.28-3.16,2.61,2.61,0,0,0-1.06-1.33,6.09,6.09,0,0,0-2.61-.37h-2.69v-7.63h22.73v7.63h-2.52a6.06,6.06,0,0,0-2.69.43,2.39,2.39,0,0,0-1.12,1.19,10.36,10.36,0,0,0-.31,3.24v42.65h-11.35l-20.47-40.63v28.42a9.87,9.87,0,0,0,.29,3.12,2.24,2.24,0,0,0,1.06,1.07,6.38,6.38,0,0,0,2.65.39h2.64v7.63h-22.81v-7.63h2.36a7.39,7.39,0,0,0,2.69-.33,2.58,2.58,0,0,0,1.16-1.17,5.54,5.54,0,0,0,.43-2.49V229.05a6.82,6.82,0,0,0-.39-2.67,2.6,2.6,0,0,0-1.06-1.23,4.92,4.92,0,0,0-2.24-.37h-3Z" fill="#00a450"/><path d="M1220,217.15l4.77,18.5-7.39,2.09q-3.67-6.62-8.33-9.69a17.65,17.65,0,0,0-9.9-3.07,9.11,9.11,0,0,0-5.35,1.38,3.89,3.89,0,0,0-2,3.09,4.92,4.92,0,0,0,1.78,3.61q1.74,1.66,6.41,3l10.59,3.09q8.82,2.52,12.57,6.72a14.43,14.43,0,0,1,3.71,9.84,15.41,15.41,0,0,1-5.69,12.1q-6.36,5.46-15.82,5.46a27.45,27.45,0,0,1-8.06-1.13,29.76,29.76,0,0,1-7.68-3.78l-1.73,4H1182l-3.91-21.38,7.39-1.78a26,26,0,0,0,8.12,10.89,19.1,19.1,0,0,0,12.12,4.36,13.91,13.91,0,0,0,4.92-.75,6.35,6.35,0,0,0,2.94-2.09,4.63,4.63,0,0,0,1-2.77,5,5,0,0,0-2.29-4.08q-2.34-1.69-8.14-3.35l-9.21-2.7a42.3,42.3,0,0,1-5.68-2.24,21.1,21.1,0,0,1-5.49-3.41,14.75,14.75,0,0,1-4.45-10.43,14.39,14.39,0,0,1,2.43-8.08,17.2,17.2,0,0,1,7.31-6,25.08,25.08,0,0,1,10.81-2.29,23.44,23.44,0,0,1,12.91,3.69l1.54-2.74Z" fill="#e22f29"/><path d="M1251.88,217.15h12.38l16.55,42.57c.9,2.27,1.69,3.66,2.39,4.19a6.54,6.54,0,0,0,3.86.75v7.63H1261v-7.63l1.58,0a5.86,5.86,0,0,0,3-.57,1.66,1.66,0,0,0,.87-1.4,12,12,0,0,0-.75-2.93l-1.64-5H1247.3l-2.06,5.57a9.16,9.16,0,0,0-.64,2.34,1.65,1.65,0,0,0,.46,1.14,2.68,2.68,0,0,0,1.48.75,23.42,23.42,0,0,0,3.72.16v7.63h-21.35v-7.63a9.44,9.44,0,0,0,3-.35,3.72,3.72,0,0,0,1.56-1.07,9.85,9.85,0,0,0,1.37-2.65Zm-1.66,29.68h11l-5.33-15.14Z" fill="#e22f29"/><path d="M1290.26,217.15h45.61l6.25,17.59-7.16,2.49a27.15,27.15,0,0,0-3.32-5.79,14,14,0,0,0-3.75-3.26,13.52,13.52,0,0,0-4.71-1.74,42.38,42.38,0,0,0-6-.28h-6.8v14.63h3.48a6.67,6.67,0,0,0,3.1-.6,3.67,3.67,0,0,0,1.62-1.54,7.3,7.3,0,0,0,.49-3.16v-2.92h7.12v24.66h-7.12v-3.56a6.85,6.85,0,0,0-.27-2.25,4,4,0,0,0-1-1.54,3.49,3.49,0,0,0-1.44-.83,12.09,12.09,0,0,0-2.95-.24h-3v11.58a7.62,7.62,0,0,0,.35,2.83,2.27,2.27,0,0,0,1.15,1.09,8.78,8.78,0,0,0,3,.35h2.26v7.63h-26.92v-7.63h1.79c2,0,3.29-.26,3.91-.77s.94-1.55.94-3.1v-31.7a7.52,7.52,0,0,0-.36-2.89,2.32,2.32,0,0,0-1.19-1.07,10.18,10.18,0,0,0-3.3-.35h-1.79Z" fill="#e22f29"/><path d="M1345.28,217.15h46l6.29,17.43-7.16,2.57a23.45,23.45,0,0,0-4.25-6.88,11.83,11.83,0,0,0-5.38-3.46A25,25,0,0,0,1374,226h-8.42v13.76h2.77a12.42,12.42,0,0,0,4.2-.46,2.89,2.89,0,0,0,1.57-1.42,10.32,10.32,0,0,0,.47-3.85v-2.1h7v23.36h-7v-2.38a8.22,8.22,0,0,0-.57-3.54,3.08,3.08,0,0,0-1.56-1.51,15.1,15.1,0,0,0-4.39-.39h-2.49v12.68a8.07,8.07,0,0,0,.2,2.45,1.35,1.35,0,0,0,.77.68,7.84,7.84,0,0,0,2.47.24h4.63a22.67,22.67,0,0,0,8.73-1.49,16.77,16.77,0,0,0,6.35-4.81,23.49,23.49,0,0,0,4.29-7.88l7.22,2.49-7.23,20.5h-47.71v-7.63h1.38a11.49,11.49,0,0,0,3.72-.39,2.41,2.41,0,0,0,1.34-1.39,15.67,15.67,0,0,0,.2-3.36v-30a9.34,9.34,0,0,0-.34-3.2,2.29,2.29,0,0,0-1-1.13,7,7,0,0,0-2.81-.37h-2.45Z" fill="#e22f29"/><path d="M1407.42,215.29h5.21l.56,1.86h31.07l.67-1.86h5.26l6.83,19.33-7.35,2.57a55.15,55.15,0,0,0-3.52-6.29,16.68,16.68,0,0,0-4.82-4.54,7.77,7.77,0,0,0-4.07-1.27,1.57,1.57,0,0,0-1.3.46,3.79,3.79,0,0,0-.36,2.07v31.71a18,18,0,0,0,.2,3.51,2.28,2.28,0,0,0,.67,1.13,2.58,2.58,0,0,0,1.32.55,37.66,37.66,0,0,0,4.45.14v7.63h-26.92v-7.63H1417a10.9,10.9,0,0,0,3.46-.33,2.32,2.32,0,0,0,1.16-1.19,10.2,10.2,0,0,0,.39-3.54V227.19a3,3,0,0,0-.31-1.74,1.82,1.82,0,0,0-1.35-.36,9,9,0,0,0-4.58,1.55,15.17,15.17,0,0,0-4.51,4.34,66,66,0,0,0-3.36,6.21l-7.23-2.57Z" fill="#e22f29"/><path d="M1457.22,217.15h27.39v7.63h-2a6.73,6.73,0,0,0-2.73.33,1.18,1.18,0,0,0-.55,1.09,6.88,6.88,0,0,0,1.26,3.08l7.25,12,8-12.48c.71-1.08,1.11-1.69,1.18-1.82a2.43,2.43,0,0,0,.16-.87,1.12,1.12,0,0,0-.45-1,4.46,4.46,0,0,0-2.12-.31h-2.8v-7.63h22v7.63a9.45,9.45,0,0,0-4.06.67,9.7,9.7,0,0,0-2.78,3l-14.71,21.43v9.84a10.53,10.53,0,0,0,.34,3.38,2.26,2.26,0,0,0,1.15,1.15,9,9,0,0,0,3.21.37h1.94v7.63H1472v-7.63h1.46a10.74,10.74,0,0,0,3.64-.37,2.57,2.57,0,0,0,1.2-1.27,9.81,9.81,0,0,0,.42-3.58v-8.61L1464,228.49a9.8,9.8,0,0,0-3-3.28,10.63,10.63,0,0,0-3.76-.43Z" fill="#e22f29"/><path d="M1512.54,284.39a5.29,5.29,0,0,0-5.16,4.15H1174.82c-2.2-13.2-6.07-36.45-6.07-36.45l-1.09-6.53-12.15,69.08-8.71-47.18-10.28,30.05-3.92-9h-519a5.28,5.28,0,1,0,.17,2.27h517.37l5.66,12.94,9.37-27.37,9.42,51,12-68.43c1.36,8.16,3.68,22.11,5.15,30.87l.15.95h334.48a5.29,5.29,0,1,0,5.16-6.42Z" fill="#00a450"/><path d="M629.23,307.27h1.71l2.53,10.18-2.21.66a17.36,17.36,0,0,0-5.53-6.75,10.48,10.48,0,0,0-6.29-2.06,9,9,0,0,0-3.74.75,5.88,5.88,0,0,0-2.48,1.92,4.21,4.21,0,0,0-.83,2.42,4,4,0,0,0,.64,2.15,5.73,5.73,0,0,0,1.94,1.83,19.58,19.58,0,0,0,4.27,1.67l6.18,1.82a32,32,0,0,1,3.3,1.28,13.18,13.18,0,0,1,3.37,2,7.34,7.34,0,0,1,1.9,2.58,7.94,7.94,0,0,1,.68,3.31,8.83,8.83,0,0,1-3.44,6.88,13.22,13.22,0,0,1-8.92,2.95,14.4,14.4,0,0,1-5-.82,17.25,17.25,0,0,1-4.81-2.9l-1.09,3.15h-1.66l-2.2-11.86,2.2-.45a18,18,0,0,0,3.21,5.59,14.1,14.1,0,0,0,4.43,3.47,11.29,11.29,0,0,0,4.94,1.17,9.27,9.27,0,0,0,6-2.06,5.14,5.14,0,0,0,2.13-4.08,4.49,4.49,0,0,0-1.54-3.52,15.41,15.41,0,0,0-5.59-2.56l-5.92-1.71c-3.32-1-5.65-2.19-7-3.69a7.46,7.46,0,0,1-2-5.16,7.25,7.25,0,0,1,1.33-4.21,10,10,0,0,1,4.07-3.23,13.85,13.85,0,0,1,6-1.3,14.75,14.75,0,0,1,5.25.94,11.42,11.42,0,0,1,3.27,1.9Z" fill="#2b2b2a"/><path d="M656.63,326.59V324a4.45,4.45,0,0,0-1.47-3.76,6.79,6.79,0,0,0-4.16-1.12,7.7,7.7,0,0,0-2.32.32,4.15,4.15,0,0,0-1.6.88,3.38,3.38,0,0,0-.89,1.26c-.08.18-.27.85-.57,2-.37,1.42-1.1,2.13-2.2,2.13a2,2,0,0,1-1.53-.63,2.38,2.38,0,0,1-.58-1.69,4.93,4.93,0,0,1,1.16-3.07,8.41,8.41,0,0,1,3.54-2.49,14.75,14.75,0,0,1,5.62-1,13.08,13.08,0,0,1,5.19.93A6.58,6.58,0,0,1,660,320.5a9.38,9.38,0,0,1,.71,4.4V334a16.34,16.34,0,0,0,.12,2.53,2.66,2.66,0,0,0,.91,1.52,2.69,2.69,0,0,0,1.7.51,8.34,8.34,0,0,0,2.6-.5v2.06a12.84,12.84,0,0,1-3.53.57,7.38,7.38,0,0,1-2.83-.47,4.7,4.7,0,0,1-1.88-1.39,4.53,4.53,0,0,1-.95-2.16,21.23,21.23,0,0,1-5.14,3.12,12.59,12.59,0,0,1-4.64.9,7.79,7.79,0,0,1-5.3-1.77,5.33,5.33,0,0,1-1.29-6.92,6.78,6.78,0,0,1,2.27-2.29,15.6,15.6,0,0,1,4.8-1.76A81.19,81.19,0,0,1,656.63,326.59Zm0,2.06q-5.49.81-6.8,1.11a12.38,12.38,0,0,0-3.69,1.31,4.58,4.58,0,0,0-1.59,1.52,3.41,3.41,0,0,0-.48,1.74,3.31,3.31,0,0,0,.54,1.79,3.6,3.6,0,0,0,1.5,1.36,4.38,4.38,0,0,0,2.06.5,10,10,0,0,0,3.49-.73,24.51,24.51,0,0,0,5-2.87Z" fill="#2b2b2a"/><path d="M668.69,317.45h4V313.9a8,8,0,0,1,2.42-6,8.79,8.79,0,0,1,6.34-2.33,6.64,6.64,0,0,1,4.06,1.09A3,3,0,0,1,687,309a2,2,0,0,1-2,2,3,3,0,0,1-1.35-.28,9.15,9.15,0,0,1-1.75-1.42,3.64,3.64,0,0,0-2.4-1.19,2.17,2.17,0,0,0-1.4.49,3,3,0,0,0-1,1.42,9.19,9.19,0,0,0-.34,2.88v4.52h4.45v2.41h-4.45v15.37a6,6,0,0,0,.24,2.12,1.38,1.38,0,0,0,.71.75,6.9,6.9,0,0,0,2.2.21h1v2H668.69v-2h.73a7.47,7.47,0,0,0,2.38-.23,1.45,1.45,0,0,0,.73-.77,7.81,7.81,0,0,0,.21-2.43v-15h-4Z" fill="#2b2b2a"/><path d="M705.73,334.19l1.51,1.23a19.91,19.91,0,0,1-3.35,3.27,10.9,10.9,0,0,1-3.07,1.69,10.43,10.43,0,0,1-3.38.49,11.24,11.24,0,0,1-10.21-5.68,12.44,12.44,0,0,1-1.49-6.21,13.23,13.23,0,0,1,1.44-6.39,10.75,10.75,0,0,1,4-4.18,11.59,11.59,0,0,1,6-1.53,11.24,11.24,0,0,1,4.41.79,8.18,8.18,0,0,1,3.17,2.39,10.18,10.18,0,0,1,1.9,3.65,13.79,13.79,0,0,1,.38,3.12H690.33c0,.77-.07,1.35-.07,1.73a13.06,13.06,0,0,0,1,5.33,7.76,7.76,0,0,0,2.76,3.44,7.13,7.13,0,0,0,3.9,1.1,8,8,0,0,0,3.57-.86A17.34,17.34,0,0,0,705.73,334.19Zm-3-9.57a9.05,9.05,0,0,0-1-3.22,4.65,4.65,0,0,0-1.85-1.65,5.79,5.79,0,0,0-2.69-.62,6.47,6.47,0,0,0-2.79.62,6,6,0,0,0-2.17,1.7,9.76,9.76,0,0,0-1.5,3.17Z" fill="#2b2b2a"/><path d="M718,309.4h1.68v8.05h7v2.37h-7V334.1a7.6,7.6,0,0,0,.32,2.6,2.8,2.8,0,0,0,1.09,1.28,3.14,3.14,0,0,0,1.72.5,8.57,8.57,0,0,0,5-2v2.3a11,11,0,0,1-6.28,2.11,6.63,6.63,0,0,1-3.27-.81,4.52,4.52,0,0,1-2-1.89,9.4,9.4,0,0,1-.53-3.79V319.82H711.6v-2a8.11,8.11,0,0,0,3.22-1.4,7,7,0,0,0,2-2.46A16.37,16.37,0,0,0,718,309.4Z" fill="#2b2b2a"/><path d="M729.32,317.45h11.5v2h-1a9.41,9.41,0,0,0-1.61.07,1,1,0,0,0-.52.39,1.28,1.28,0,0,0-.21.75,6.57,6.57,0,0,0,.64,2.15l5.5,12.91,5.09-12.34a10.08,10.08,0,0,0,.9-2.89.85.85,0,0,0-.4-.79,4.12,4.12,0,0,0-1.83-.25h-1.11v-2H756v2h-.57a5.44,5.44,0,0,0-1.84.19,2,2,0,0,0-.83.77,17.21,17.21,0,0,0-1.28,2.63l-8.68,20.26a30,30,0,0,1-2.11,4,8.35,8.35,0,0,1-2.91,2.88,7.53,7.53,0,0,1-3.86,1,6.34,6.34,0,0,1-3.91-1.11,2.9,2.9,0,0,1-1.25-2.37,2.06,2.06,0,0,1,.54-1.46,1.7,1.7,0,0,1,1.28-.58,2.43,2.43,0,0,1,1.07.24,6.61,6.61,0,0,1,1.28,1,9.35,9.35,0,0,0,1.67,1.28,2.13,2.13,0,0,0,1,.24,3.26,3.26,0,0,0,1.91-.67,5.23,5.23,0,0,0,1.61-1.87,29.57,29.57,0,0,0,1.57-3.24l1-2.34-7.83-17.53a10.8,10.8,0,0,0-1.39-2.49,2.44,2.44,0,0,0-1.14-.78,11.08,11.08,0,0,0-1.94-.09Z" fill="#2b2b2a"/><path d="M775.43,307.27h12.65v2h-1a3.84,3.84,0,0,0-2,.39,2.18,2.18,0,0,0-.9,1.08,8.49,8.49,0,0,0-.29,2.73v21.29a6.09,6.09,0,0,0,.31,2.28,2,2,0,0,0,.86,1,4.5,4.5,0,0,0,2,.31h1v2H775.43v-2h1a4.33,4.33,0,0,0,2-.32,1.83,1.83,0,0,0,.84-.92,6.93,6.93,0,0,0,.26-2.33V313a7.74,7.74,0,0,0-.26-2.47,1.74,1.74,0,0,0-.84-.93,4.68,4.68,0,0,0-2-.3h-1Z" fill="#2b2b2a"/><path d="M808.9,317.45h1.66l2.12,7.25-2.13.71a10.92,10.92,0,0,0-3.59-4.59,7.9,7.9,0,0,0-4.67-1.67,4.68,4.68,0,0,0-3,.89,2.57,2.57,0,0,0-1.14,2A2.48,2.48,0,0,0,799,324a10.76,10.76,0,0,0,3.62,1.82l4.62,1.64a13.25,13.25,0,0,1,5.33,3,5.44,5.44,0,0,1,1.4,3.65,6,6,0,0,1-1,3.33,7.22,7.22,0,0,1-3,2.54,10.41,10.41,0,0,1-4.54.95,10.55,10.55,0,0,1-6.82-2.28l-.5,1.71h-1.68l-3-7.74,2.13-.85a18.09,18.09,0,0,0,4.08,4.83,9.47,9.47,0,0,0,5.79,2,5.14,5.14,0,0,0,3.39-1.1,3.16,3.16,0,0,0,1.33-2.45,3,3,0,0,0-.83-2,8.67,8.67,0,0,0-3.27-1.75l-5.47-2a12.38,12.38,0,0,1-4.9-2.8,5,5,0,0,1-1.37-3.48,5.36,5.36,0,0,1,2.23-4.22,8.69,8.69,0,0,1,5.7-1.84,10.35,10.35,0,0,1,3.22.46,9.34,9.34,0,0,1,2.8,1.53Z" fill="#2b2b2a"/><path d="M819.22,320.84v-2a12.51,12.51,0,0,0,6.16-2h1.7v4.5a22.53,22.53,0,0,1,5.34-3.56,11.29,11.29,0,0,1,4.48-.94,8.6,8.6,0,0,1,3.43.65,6.48,6.48,0,0,1,2.42,1.77,5.62,5.62,0,0,1,1.24,2.53,13.29,13.29,0,0,1,.19,2.65V334.9a6.32,6.32,0,0,0,.28,2.41,1.59,1.59,0,0,0,.86.77,10.82,10.82,0,0,0,2.91.23v2H836.06v-2h.66A5.76,5.76,0,0,0,839,338a1.81,1.81,0,0,0,.89-.9,6.87,6.87,0,0,0,.27-2.41V326a11,11,0,0,0-.43-3.74,3.64,3.64,0,0,0-1.5-1.69,5,5,0,0,0-2.66-.65,10.11,10.11,0,0,0-4.1,1,15.59,15.59,0,0,0-4.21,2.9v10.92a7.22,7.22,0,0,0,.27,2.46,1.87,1.87,0,0,0,.89.93,6.48,6.48,0,0,0,2.27.23h.69v2H819.2v-2h.59a6.77,6.77,0,0,0,2.41-.29,1.73,1.73,0,0,0,.91-1.06,12.72,12.72,0,0,0,.14-2.6V320.84Z" fill="#2b2b2a"/><path d="M855.84,319.51,854.56,318q4.85-4,4.85-6.61a7.6,7.6,0,0,0,0-.76,5.2,5.2,0,0,1-.79.26,3.11,3.11,0,0,1-.71.1,2.39,2.39,0,0,1-1.82-.74,2.62,2.62,0,0,1-.69-1.87,2.67,2.67,0,0,1,.83-1.94,2.73,2.73,0,0,1,2-.83,3.58,3.58,0,0,1,2.76,1.29,4.8,4.8,0,0,1,1.15,3.33,7.8,7.8,0,0,1-.55,2.78,9.24,9.24,0,0,1-1.58,2.7A39.43,39.43,0,0,1,855.84,319.51Z" fill="#2b2b2a"/><path d="M870.38,309.4h1.68v8.05h7v2.37h-7V334.1a7.6,7.6,0,0,0,.32,2.6,2.74,2.74,0,0,0,1.09,1.28,3.09,3.09,0,0,0,1.72.5,8.6,8.6,0,0,0,5-2v2.3a11.08,11.08,0,0,1-6.29,2.11,6.6,6.6,0,0,1-3.26-.81,4.47,4.47,0,0,1-2-1.89,9.36,9.36,0,0,1-.54-3.79V319.82h-4.14v-2a8.18,8.18,0,0,0,3.22-1.4,7,7,0,0,0,2-2.46A16.32,16.32,0,0,0,870.38,309.4Z" fill="#2b2b2a"/><path d="M900.86,307.27h26.86l3.1,8.69-2.08.78a13.13,13.13,0,0,0-1.71-3.35,8.75,8.75,0,0,0-2.22-2.07,7.65,7.65,0,0,0-2.61-1.14,26,26,0,0,0-4.75-.29h-8V322h4a6.05,6.05,0,0,0,3.34-.75,4,4,0,0,0,1.56-1.86,8.7,8.7,0,0,0,.33-2.89V316H921v14.49h-2.32v-1.26a8.4,8.4,0,0,0-.25-2.39,4,4,0,0,0-2.35-2.27,10,10,0,0,0-2.63-.24h-4V335a7.76,7.76,0,0,0,.15,2.05,1,1,0,0,0,.51.53,6.34,6.34,0,0,0,1.94.17h5a16.88,16.88,0,0,0,6.49-1,11.27,11.27,0,0,0,4.11-3,18,18,0,0,0,2.68-4.54l2.15.76-3.69,10.35H900.86v-2h.95a5.85,5.85,0,0,0,2.06-.21,2,2,0,0,0,1-1,5.46,5.46,0,0,0,.23-2V312.31a4.79,4.79,0,0,0-.3-2.08,2,2,0,0,0-1.07-.81,12.27,12.27,0,0,0-2.82-.17Z" fill="#2b2b2a"/><path d="M935.49,317.45h11.9v2h-.83a4.87,4.87,0,0,0-1.3.17,1.12,1.12,0,0,0-.58.37.81.81,0,0,0-.22.51,3.2,3.2,0,0,0,.9,1.65l3.37,4.26,4-4.26a3.41,3.41,0,0,0,1.09-1.79.77.77,0,0,0-.38-.67,3.54,3.54,0,0,0-1.63-.24h-.9v-2H961v2a6.4,6.4,0,0,0-2.57.62,10.5,10.5,0,0,0-2.55,2.08l-5.42,5.61,6.76,7.73.26.33a8.87,8.87,0,0,0,2.22,2.08,4.13,4.13,0,0,0,2.13.48v2H950.18v-2h1a4.23,4.23,0,0,0,1.45-.15.84.84,0,0,0,.52-.81,4.38,4.38,0,0,0-1.14-1.93l-4.31-5.29-4.8,5.29-.47.57-.26.28a1.86,1.86,0,0,0-.59,1.15.71.71,0,0,0,.37.67,3.91,3.91,0,0,0,1.64.22h.94v2h-10v-2a6.1,6.1,0,0,0,1.83-.26,4.32,4.32,0,0,0,1.27-.7A17.67,17.67,0,0,0,939.2,336l7-7.13-5.92-6.78a16.37,16.37,0,0,0-1.76-1.78,4.08,4.08,0,0,0-1.27-.71,5.53,5.53,0,0,0-1.72-.21Z" fill="#2b2b2a"/><path d="M964.38,320.84v-2a10.37,10.37,0,0,0,3.15-.44,12.53,12.53,0,0,0,3-1.55h1.87v4a21.55,21.55,0,0,1,4.93-3.15,10.24,10.24,0,0,1,3.93-.81,9,9,0,0,1,6.9,3.17,11.91,11.91,0,0,1,2.85,8.27,13.26,13.26,0,0,1-3.24,9.23,9.76,9.76,0,0,1-7.63,3.32,10.77,10.77,0,0,1-4.35-.88,14.15,14.15,0,0,1-3.39-2.2v7.79a12.17,12.17,0,0,0,.09,2.06,1.5,1.5,0,0,0,.48.76,1.7,1.7,0,0,0,.9.4,25.85,25.85,0,0,0,2.7.07v2h-12.2v-2h1.07a5.84,5.84,0,0,0,2.12-.24,1.63,1.63,0,0,0,.72-.77,11.9,11.9,0,0,0,.14-2.47V320.84Zm8,2.43v8.15a10.79,10.79,0,0,0,.19,2.39,5.12,5.12,0,0,0,1.1,2.18,7.09,7.09,0,0,0,5.16,2.35A7.25,7.25,0,0,0,984.2,336q2.25-2.32,2.25-7a10.88,10.88,0,0,0-1.87-6.81,5.47,5.47,0,0,0-4.42-2.4,8.69,8.69,0,0,0-3.59.88A20.65,20.65,0,0,0,972.41,323.27Z" fill="#2b2b2a"/><path d="M1016.08,334.19l1.52,1.23a20.3,20.3,0,0,1-3.35,3.27,11.17,11.17,0,0,1-3.07,1.69,10.49,10.49,0,0,1-3.39.49,11.24,11.24,0,0,1-10.21-5.68,12.44,12.44,0,0,1-1.49-6.21,13.12,13.12,0,0,1,1.45-6.39,10.68,10.68,0,0,1,4-4.18,11.57,11.57,0,0,1,6-1.53,11.16,11.16,0,0,1,4.4.79,8.21,8.21,0,0,1,3.18,2.39,10,10,0,0,1,1.89,3.65,13.24,13.24,0,0,1,.38,3.12h-16.74c-.05.77-.07,1.35-.07,1.73a12.9,12.9,0,0,0,1,5.33,7.63,7.63,0,0,0,2.76,3.44,7.07,7.07,0,0,0,3.89,1.1,8,8,0,0,0,3.58-.86A17.33,17.33,0,0,0,1016.08,334.19Zm-3-9.57a9,9,0,0,0-1-3.22,4.62,4.62,0,0,0-1.84-1.65,5.82,5.82,0,0,0-2.69-.62,6.48,6.48,0,0,0-2.8.62,5.84,5.84,0,0,0-2.16,1.7,9.76,9.76,0,0,0-1.51,3.17Z" fill="#2b2b2a"/><path d="M1022.17,320.84v-2a12.51,12.51,0,0,0,6.16-2h1.7v4.5a22.51,22.51,0,0,1,5.33-3.56,11.34,11.34,0,0,1,4.49-.94,8.6,8.6,0,0,1,3.43.65,6.48,6.48,0,0,1,2.42,1.77,5.72,5.72,0,0,1,1.24,2.53,13.29,13.29,0,0,1,.19,2.65V334.9a6.61,6.61,0,0,0,.27,2.41,1.61,1.61,0,0,0,.87.77,10.82,10.82,0,0,0,2.91.23v2H1039v-2h.66A5.76,5.76,0,0,0,1042,338a1.81,1.81,0,0,0,.89-.9,6.87,6.87,0,0,0,.27-2.41V326a10.93,10.93,0,0,0-.44-3.74,3.62,3.62,0,0,0-1.49-1.69,5,5,0,0,0-2.66-.65,10.07,10.07,0,0,0-4.1,1,15.44,15.44,0,0,0-4.21,2.9v10.92a7.22,7.22,0,0,0,.27,2.46,1.87,1.87,0,0,0,.89.93,6.48,6.48,0,0,0,2.27.23h.69v2h-12.22v-2h.59a6.77,6.77,0,0,0,2.41-.29,1.69,1.69,0,0,0,.9-1.06,11.65,11.65,0,0,0,.15-2.6V320.84Z" fill="#2b2b2a"/><path d="M1071.31,317.45H1073l2.13,7.25-2.13.71a10.92,10.92,0,0,0-3.59-4.59,8,8,0,0,0-4.68-1.67,4.7,4.7,0,0,0-3,.89,2.59,2.59,0,0,0-1.13,2,2.45,2.45,0,0,0,.83,1.87,10.65,10.65,0,0,0,3.62,1.82l4.62,1.64a13.33,13.33,0,0,1,5.33,3,5.43,5.43,0,0,1,1.39,3.65,6,6,0,0,1-1,3.33,7.19,7.19,0,0,1-3,2.54,10.4,10.4,0,0,1-4.53.95,10.53,10.53,0,0,1-6.82-2.28l-.5,1.71h-1.69l-3-7.74,2.13-.85a18.09,18.09,0,0,0,4.08,4.83,9.45,9.45,0,0,0,5.79,2,5.17,5.17,0,0,0,3.39-1.1,3.19,3.19,0,0,0,1.33-2.45,3,3,0,0,0-.83-2,8.67,8.67,0,0,0-3.27-1.75l-5.47-2a12.31,12.31,0,0,1-4.9-2.8,5,5,0,0,1-1.38-3.48,5.37,5.37,0,0,1,2.24-4.22,8.65,8.65,0,0,1,5.7-1.84,10.35,10.35,0,0,1,3.22.46,9.3,9.3,0,0,1,2.79,1.53Z" fill="#2b2b2a"/><path d="M1081.42,320.84v-2a17.85,17.85,0,0,0,3.31-.66,18.08,18.08,0,0,0,3-1.33h1.73v19a3,3,0,0,0,.29,1.49,1.6,1.6,0,0,0,.79.73,5.24,5.24,0,0,0,1.86.22h1.11v2h-12.13v-2h1a5.33,5.33,0,0,0,2.13-.28,1.64,1.64,0,0,0,.77-.81,7.93,7.93,0,0,0,.22-2.44V320.84Zm6-14.64a2.64,2.64,0,0,1,1.94.79,2.61,2.61,0,0,1,.81,1.93,2.75,2.75,0,1,1-5.5,0,2.61,2.61,0,0,1,.81-1.93A2.66,2.66,0,0,1,1087.44,306.2Z" fill="#2b2b2a"/><path d="M1095.52,317.45h10.84v2h-.66a8.93,8.93,0,0,0-1.68.09,1.41,1.41,0,0,0-.71.45,1.17,1.17,0,0,0-.24.74,6.3,6.3,0,0,0,.52,1.91l5.41,13.48,5.25-13.48a6.11,6.11,0,0,0,.5-1.89,1.12,1.12,0,0,0-.48-1,3,3,0,0,0-1.7-.34h-1.14v-2h9.36v2a4.17,4.17,0,0,0-1.62.31,2.58,2.58,0,0,0-1,.73,10.49,10.49,0,0,0-1.1,2.15l-7.57,17.67h-2.84L1099,322.23a7.87,7.87,0,0,0-1-1.82,2.49,2.49,0,0,0-1-.71,3.69,3.69,0,0,0-1.46-.26Z" fill="#2b2b2a"/><path d="M1143.88,334.19l1.51,1.23a19.91,19.91,0,0,1-3.35,3.27,11,11,0,0,1-3.06,1.69,10.54,10.54,0,0,1-3.39.49,11.24,11.24,0,0,1-10.21-5.68,12.44,12.44,0,0,1-1.49-6.21,13.12,13.12,0,0,1,1.45-6.39,10.66,10.66,0,0,1,4-4.18,11.6,11.6,0,0,1,6-1.53,11.19,11.19,0,0,1,4.4.79,8.21,8.21,0,0,1,3.18,2.39,10.32,10.32,0,0,1,1.89,3.65,13.24,13.24,0,0,1,.38,3.12h-16.74c0,.77-.08,1.35-.08,1.73a12.9,12.9,0,0,0,1,5.33,7.68,7.68,0,0,0,2.75,3.44,7.13,7.13,0,0,0,3.9,1.1,8,8,0,0,0,3.58-.86A17.33,17.33,0,0,0,1143.88,334.19Zm-3-9.57a9.23,9.23,0,0,0-1-3.22,4.58,4.58,0,0,0-1.85-1.65,5.75,5.75,0,0,0-2.68-.62,6.48,6.48,0,0,0-2.8.62,6,6,0,0,0-2.17,1.7,10,10,0,0,0-1.5,3.17Z" fill="#2b2b2a"/><path d="M1166.74,307.27h12.64v2h-1a3.87,3.87,0,0,0-2,.39,2.18,2.18,0,0,0-.9,1.08,8.57,8.57,0,0,0-.28,2.73v21.29a5.89,5.89,0,0,0,.31,2.28,2,2,0,0,0,.86,1,4.45,4.45,0,0,0,2,.31h1v2h-12.64v-2h1a4.33,4.33,0,0,0,2-.32,1.93,1.93,0,0,0,.84-.92,6.93,6.93,0,0,0,.26-2.33V313a7.74,7.74,0,0,0-.26-2.47,1.82,1.82,0,0,0-.84-.93,4.68,4.68,0,0,0-2-.3h-1Z" fill="#2b2b2a"/><path d="M1190.42,309.4h1.68v8.05h7v2.37h-7V334.1a7.6,7.6,0,0,0,.32,2.6,2.74,2.74,0,0,0,1.09,1.28,3.12,3.12,0,0,0,1.72.5,8.6,8.6,0,0,0,5-2v2.3a11.08,11.08,0,0,1-6.29,2.11,6.6,6.6,0,0,1-3.26-.81,4.47,4.47,0,0,1-2-1.89,9.36,9.36,0,0,1-.54-3.79V319.82H1184v-2a8.18,8.18,0,0,0,3.22-1.4,6.91,6.91,0,0,0,2-2.46A16.32,16.32,0,0,0,1190.42,309.4Z" fill="#2b2b2a"/><path d="M1207.21,319.51l-1.28-1.56q4.86-4,4.86-6.61c0-.21,0-.46,0-.76a5.48,5.48,0,0,1-.78.26,3.11,3.11,0,0,1-.71.1,2.36,2.36,0,0,1-1.82-.74,2.77,2.77,0,0,1,.14-3.81,2.71,2.71,0,0,1,2-.83,3.58,3.58,0,0,1,2.76,1.29,4.84,4.84,0,0,1,1.14,3.33,8,8,0,0,1-.54,2.78,9.06,9.06,0,0,1-1.59,2.7A38.4,38.4,0,0,1,1207.21,319.51Z" fill="#2b2b2a"/><path d="M1231.54,317.45h1.66l2.13,7.25-2.14.71a10.9,10.9,0,0,0-3.58-4.59,8,8,0,0,0-4.68-1.67,4.68,4.68,0,0,0-3,.89,2.57,2.57,0,0,0-1.14,2,2.48,2.48,0,0,0,.83,1.87,10.87,10.87,0,0,0,3.62,1.82l4.62,1.64a13.25,13.25,0,0,1,5.33,3,5.44,5.44,0,0,1,1.4,3.65,6,6,0,0,1-1.05,3.33,7.22,7.22,0,0,1-3,2.54,10.41,10.41,0,0,1-4.54.95,10.57,10.57,0,0,1-6.82-2.28l-.5,1.71H1219l-3-7.74,2.13-.85a18.09,18.09,0,0,0,4.08,4.83,9.47,9.47,0,0,0,5.79,2,5.14,5.14,0,0,0,3.39-1.1,3.16,3.16,0,0,0,1.33-2.45,3,3,0,0,0-.83-2,8.67,8.67,0,0,0-3.27-1.75l-5.47-2a12.38,12.38,0,0,1-4.9-2.8,5.05,5.05,0,0,1-1.37-3.48,5.34,5.34,0,0,1,2.24-4.22,8.64,8.64,0,0,1,5.69-1.84,10.35,10.35,0,0,1,3.22.46,9.34,9.34,0,0,1,2.8,1.53Z" fill="#2b2b2a"/><path d="M1258.89,307.27H1272q6,0,8.2.75a9.89,9.89,0,0,1,4.66,3.08,8.27,8.27,0,0,1,1.84,5.54,8.69,8.69,0,0,1-1.4,4.95,9.57,9.57,0,0,1-4.09,3.57c-1.61.7-4.13,1-7.58,1h-6v8.48a8,8,0,0,0,.21,2.39,1.83,1.83,0,0,0,.78,1,4.86,4.86,0,0,0,2,.27h1.14v2h-12.79v-2h.78a6.13,6.13,0,0,0,2.23-.27,1.76,1.76,0,0,0,.87-.85A6,6,0,0,0,1263,335V312.4a5.74,5.74,0,0,0-.25-2.11,1.55,1.55,0,0,0-.83-.78,6.65,6.65,0,0,0-2.29-.26h-.78Zm8.65,2.58V323.7h5.1a14.84,14.84,0,0,0,5.42-.69,5.68,5.68,0,0,0,2.57-2.38,7.51,7.51,0,0,0,1-4,6.93,6.93,0,0,0-1.19-4.16,5.8,5.8,0,0,0-3.22-2.26,24.49,24.49,0,0,0-5.55-.4Z" fill="#2b2b2a"/><path d="M1289.63,320.84v-2a13.32,13.32,0,0,0,3.07-.57,16.44,16.44,0,0,0,3.07-1.42h1.77v4.48a12.94,12.94,0,0,1,3.91-3.27,8.51,8.51,0,0,1,4-1.21,4.28,4.28,0,0,1,2.77.83,2.5,2.5,0,0,1,1,2,2,2,0,0,1-.67,1.51,2.27,2.27,0,0,1-1.62.65,2,2,0,0,1-.74-.12,5.39,5.39,0,0,1-.9-.52,4.24,4.24,0,0,0-2.18-.85,4.64,4.64,0,0,0-2.6,1,14.66,14.66,0,0,0-2.82,2.51v10.92a8.13,8.13,0,0,0,.15,1.93,2.23,2.23,0,0,0,.51.87,2,2,0,0,0,.88.54,6.89,6.89,0,0,0,1.82.16h.78v2h-12.24v-2h1a4.3,4.3,0,0,0,1.89-.26,2.11,2.11,0,0,0,.91-1,5.84,5.84,0,0,0,.3-2.26v-14Z" fill="#2b2b2a"/><path d="M1311.92,320.84v-2a15.68,15.68,0,0,0,6.35-2H1320v19a3.05,3.05,0,0,0,.28,1.49,1.64,1.64,0,0,0,.79.73,5.24,5.24,0,0,0,1.86.22h1.12v2h-12.13v-2h1A5.26,5.26,0,0,0,1315,338a1.59,1.59,0,0,0,.77-.81,7.81,7.81,0,0,0,.23-2.44V320.84Zm6-14.64a2.67,2.67,0,0,1,1.94.79,2.6,2.6,0,0,1,.8,1.93,2.65,2.65,0,0,1-.8,1.95,2.75,2.75,0,0,1-4.69-1.95,2.64,2.64,0,0,1,.8-1.93A2.68,2.68,0,0,1,1317.94,306.2Z" fill="#2b2b2a"/><path d="M1348.7,333.69l1.52,1.24q-4.46,5.94-10.68,5.94a11,11,0,0,1-8.2-3.46,11.9,11.9,0,0,1-3.34-8.59,12.32,12.32,0,0,1,1.55-6.17,10.88,10.88,0,0,1,4.31-4.25,13,13,0,0,1,6.34-1.52,11.23,11.23,0,0,1,6.8,2c1.81,1.34,2.72,2.68,2.72,4a2.15,2.15,0,0,1-.64,1.68,2.06,2.06,0,0,1-1.45.59,1.72,1.72,0,0,1-.82-.21,3,3,0,0,1-.83-.69,6.64,6.64,0,0,1-.69-1.32,13.09,13.09,0,0,0-1-1.85,5.27,5.27,0,0,0-1.82-1.49,5.14,5.14,0,0,0-2.4-.55,6.69,6.69,0,0,0-3.73,1.12,7.57,7.57,0,0,0-2.72,3.28,12.19,12.19,0,0,0-1,5.17,10.61,10.61,0,0,0,2.49,7.41,6.71,6.71,0,0,0,5.14,2.37A8.85,8.85,0,0,0,1343,338a9.71,9.71,0,0,0,2.66-1.36A22.55,22.55,0,0,0,1348.7,333.69Z" fill="#2b2b2a"/><path d="M1374.37,334.19l1.52,1.23a19.91,19.91,0,0,1-3.35,3.27,10.9,10.9,0,0,1-3.07,1.69,10.43,10.43,0,0,1-3.38.49,11.24,11.24,0,0,1-10.21-5.68,12.33,12.33,0,0,1-1.49-6.21,13.23,13.23,0,0,1,1.44-6.39,10.68,10.68,0,0,1,4-4.18,11.59,11.59,0,0,1,6-1.53,11.24,11.24,0,0,1,4.41.79,8.25,8.25,0,0,1,3.17,2.39,10.18,10.18,0,0,1,1.9,3.65,13.31,13.31,0,0,1,.37,3.12H1359c0,.77-.07,1.35-.07,1.73a13.06,13.06,0,0,0,1,5.33,7.76,7.76,0,0,0,2.76,3.44,7.1,7.1,0,0,0,3.9,1.1,8,8,0,0,0,3.57-.86A17.33,17.33,0,0,0,1374.37,334.19Zm-3-9.57a9.05,9.05,0,0,0-1-3.22,4.65,4.65,0,0,0-1.85-1.65,5.79,5.79,0,0,0-2.69-.62,6.47,6.47,0,0,0-2.79.62,6,6,0,0,0-2.17,1.7,9.56,9.56,0,0,0-1.5,3.17Z" fill="#2b2b2a"/><path d="M1380.18,309.52v-2a14.62,14.62,0,0,0,6.27-2h1.76v29.15a7,7,0,0,0,.23,2.32,2,2,0,0,0,.9,1,5.56,5.56,0,0,0,2.28.31h.75v2h-12.19v-2h1.23a3.49,3.49,0,0,0,1.74-.35,2,2,0,0,0,.83-1,7.52,7.52,0,0,0,.25-2.44v-25Z" fill="#2b2b2a"/><path d="M1416.37,334.19l1.51,1.23a19.91,19.91,0,0,1-3.35,3.27,10.9,10.9,0,0,1-3.07,1.69,10.43,10.43,0,0,1-3.38.49,11.24,11.24,0,0,1-10.21-5.68,12.44,12.44,0,0,1-1.49-6.21,13.23,13.23,0,0,1,1.44-6.39,10.75,10.75,0,0,1,4-4.18,11.6,11.6,0,0,1,6-1.53,11.22,11.22,0,0,1,4.4.79,8.18,8.18,0,0,1,3.17,2.39,10.18,10.18,0,0,1,1.9,3.65,13.79,13.79,0,0,1,.38,3.12H1401c0,.77-.07,1.35-.07,1.73a13.06,13.06,0,0,0,1,5.33,7.76,7.76,0,0,0,2.76,3.44,7.13,7.13,0,0,0,3.9,1.1,8,8,0,0,0,3.57-.86A17.34,17.34,0,0,0,1416.37,334.19Zm-3-9.57a9.05,9.05,0,0,0-1-3.22,4.65,4.65,0,0,0-1.85-1.65,5.79,5.79,0,0,0-2.69-.62,6.47,6.47,0,0,0-2.79.62,6,6,0,0,0-2.17,1.7,9.76,9.76,0,0,0-1.5,3.17Z" fill="#2b2b2a"/><path d="M1438.46,317.45h1.67l2.12,7.25-2.13.71a10.92,10.92,0,0,0-3.59-4.59,8,8,0,0,0-4.67-1.67,4.66,4.66,0,0,0-3,.89,2.57,2.57,0,0,0-1.14,2,2.48,2.48,0,0,0,.83,1.87,10.76,10.76,0,0,0,3.62,1.82l4.62,1.64a13.33,13.33,0,0,1,5.33,3,5.43,5.43,0,0,1,1.39,3.65,6,6,0,0,1-1,3.33,7.19,7.19,0,0,1-3,2.54,10.4,10.4,0,0,1-4.53.95,10.55,10.55,0,0,1-6.82-2.28l-.5,1.71H1426l-3-7.74,2.13-.85a18.09,18.09,0,0,0,4.08,4.83,9.47,9.47,0,0,0,5.79,2,5.17,5.17,0,0,0,3.39-1.1,3.16,3.16,0,0,0,1.33-2.45,3,3,0,0,0-.83-2,8.67,8.67,0,0,0-3.27-1.75l-5.47-2a12.38,12.38,0,0,1-4.9-2.8,5,5,0,0,1-1.37-3.48,5.36,5.36,0,0,1,2.23-4.22,8.67,8.67,0,0,1,5.7-1.84,10.35,10.35,0,0,1,3.22.46,9.18,9.18,0,0,1,2.79,1.53Z" fill="#2b2b2a"/><path d="M1464.8,317.45h1.66l2.13,7.25-2.13.71a10.92,10.92,0,0,0-3.59-4.59,8,8,0,0,0-4.68-1.67,4.7,4.7,0,0,0-3,.89,2.59,2.59,0,0,0-1.13,2,2.47,2.47,0,0,0,.82,1.87,10.84,10.84,0,0,0,3.63,1.82l4.62,1.64a13.33,13.33,0,0,1,5.33,3,5.43,5.43,0,0,1,1.39,3.65,6.07,6.07,0,0,1-1,3.33,7.19,7.19,0,0,1-3,2.54,10.4,10.4,0,0,1-4.53.95,10.53,10.53,0,0,1-6.82-2.28l-.5,1.71h-1.69l-3-7.74,2.13-.85a18.09,18.09,0,0,0,4.08,4.83,9.42,9.42,0,0,0,5.78,2,5.18,5.18,0,0,0,3.4-1.1,3.19,3.19,0,0,0,1.33-2.45,3,3,0,0,0-.83-2,8.67,8.67,0,0,0-3.27-1.75l-5.47-2a12.31,12.31,0,0,1-4.9-2.8,5,5,0,0,1-1.38-3.48,5.37,5.37,0,0,1,2.24-4.22,8.65,8.65,0,0,1,5.7-1.84,10.35,10.35,0,0,1,3.22.46,9.3,9.3,0,0,1,2.79,1.53Z" fill="#2b2b2a"/><path d="M1480.62,334.78a2.86,2.86,0,0,1,2.12.87,2.82,2.82,0,0,1,.87,2.09,3,3,0,0,1-5.07,2.1,3,3,0,0,1,2.08-5.06Zm-1-2.41-1.8-21.17q-.09-.9-.09-1.14a3.65,3.65,0,0,1,.76-2.55,2.88,2.88,0,0,1,2.22-.81,2.72,2.72,0,0,1,2.87,2.89,13.83,13.83,0,0,1-.12,1.42l-1.9,21.36Z" fill="#2b2b2a"/><path d="M1496.28,334.78a2.89,2.89,0,0,1,2.12.87,3,3,0,0,1,0,4.19,2.89,2.89,0,0,1-2.11.86,3,3,0,1,1,0-5.92Zm-1-2.41-1.8-21.17q-.09-.9-.09-1.14a3.7,3.7,0,0,1,.75-2.55,2.92,2.92,0,0,1,2.23-.81,2.7,2.7,0,0,1,2.86,2.89c0,.28,0,.75-.11,1.42l-1.9,21.36Z" fill="#2b2b2a"/><path d="M1511.93,334.78a2.86,2.86,0,0,1,2.12.87,2.95,2.95,0,0,1,0,4.19,2.87,2.87,0,0,1-2.11.86,3,3,0,0,1,0-5.92Zm-1-2.41-1.8-21.17c-.07-.6-.1-1-.1-1.14a3.65,3.65,0,0,1,.76-2.55,2.89,2.89,0,0,1,2.22-.81,2.7,2.7,0,0,1,2.87,2.89,13.83,13.83,0,0,1-.12,1.42l-1.89,21.36Z" fill="#2b2b2a"/><path d="M1531.16,184.29a16.82,16.82,0,1,1-8.39,2.25A16.59,16.59,0,0,1,1531.16,184.29Zm0,1.44a15.33,15.33,0,1,0,7.69,2.06A15.1,15.1,0,0,0,1531.16,185.73Zm-9.28,5H1531a8,8,0,0,1,5.2,1.52,4.72,4.72,0,0,1,1.83,3.79,4.45,4.45,0,0,1-1.32,3.28,8.64,8.64,0,0,1-3.93,2l5,7.05a6.16,6.16,0,0,0,1.56,1.68,2.47,2.47,0,0,0,1.3.41v.78h-4.36l-7-9.59h-1.8V209a1.68,1.68,0,0,0,.71,1.14,4.29,4.29,0,0,0,2.09.35v.78h-8.7v-.78a3.42,3.42,0,0,0,1.67-.31,1.74,1.74,0,0,0,.73-1,15.73,15.73,0,0,0,.07-2V194.82c0-1.12,0-1.76,0-1.94a1.47,1.47,0,0,0-.59-.93,2.8,2.8,0,0,0-1.54-.32Zm5.61,9.88a12,12,0,0,0,4-.5,4.23,4.23,0,0,0,2-1.51,3.9,3.9,0,0,0,.72-2.3,4.32,4.32,0,0,0-1.34-3.22,4.68,4.68,0,0,0-3.42-1.3,6.17,6.17,0,0,0-2,.37Z" fill="#2b2b2a"/></svg>